<svg width="125" height="41" viewBox="0 0 125 41" fill="none" xmlns="http://www.w3.org/2000/svg">
<rect width="125" height="41" fill="#F5F5F5"/>
<g filter="url(#filter0_i_0_1)">
<path d="M30.2799 28.23L34.6215 33.7209L34.6688 33.6836L34.7154 33.6454L30.2799 28.23ZM27.4899 29.64L29.1235 36.4467L29.1876 36.4313L29.2513 36.4148L27.4899 29.64ZM15.7899 30L8.88176 31.1304L9.84224 37H15.7899V30ZM15.5199 28.35L13.0999 21.7816L7.67878 23.7789L8.61176 29.4804L15.5199 28.35ZM18.0399 27.48L18.9081 34.4259L25.0399 33.6595V27.48H18.0399ZM17.7699 11.61L24.7689 11.4902L24.677 6.12134L19.4676 4.819L17.7699 11.61ZM15.2799 10.83L8.32602 10.0276L7.70426 15.4162L12.767 17.3634L15.2799 10.83ZM15.5199 9V2H9.90468L8.68657 7.48149L15.5199 9ZM28.1499 9.6L25.8679 16.2176L25.8853 16.2236L25.9026 16.2295L28.1499 9.6ZM31.2699 11.73L36.5847 7.17446L36.552 7.13632L36.5187 7.09865L31.2699 11.73ZM28.3599 25.44L22.6008 21.461L22.5761 21.4967L22.5518 21.5328L28.3599 25.44ZM28.2399 13.86L22.4445 17.7859L22.4593 17.8079L22.4743 17.8297L28.2399 13.86ZM21.8499 12V5H14.9325L14.8504 11.9169L21.8499 12ZM21.6999 27.09L14.7 27.0478L14.6576 34.09H21.6999V27.09ZM26.4299 19.05C26.4299 20.736 26.2233 21.7846 26.0213 22.3731C25.8368 22.9108 25.7094 22.9252 25.8444 22.8146L34.7154 33.6454C39.2242 29.9524 40.4299 24.2609 40.4299 19.05H26.4299ZM25.9382 22.7391C25.7926 22.8542 25.7319 22.8643 25.7284 22.8652L29.2513 36.4148C31.2478 35.8957 33.0471 34.9658 34.6215 33.7209L25.9382 22.7391ZM25.8563 22.8333C25.6058 22.8934 24.9057 23 23.5599 23V37C25.4541 37 27.3739 36.8666 29.1235 36.4467L25.8563 22.8333ZM23.5599 23H15.7899V37H23.5599V23ZM22.698 28.8696L22.428 27.2196L8.61176 29.4804L8.88176 31.1304L22.698 28.8696ZM17.9398 34.9184C18.6849 34.6439 19.2222 34.4508 19.5742 34.3293C19.7551 34.2668 19.8429 34.2386 19.8651 34.2317C19.8782 34.2276 19.8294 34.2432 19.7421 34.2663C19.6973 34.2782 19.613 34.2999 19.502 34.3243C19.4093 34.3446 19.1926 34.3904 18.9081 34.4259L17.1716 20.5341C16.655 20.5986 16.2415 20.7108 16.1539 20.734C15.9841 20.779 15.8315 20.8249 15.7197 20.8595C15.4918 20.9302 15.2447 21.0132 15.0055 21.0957C14.5176 21.2642 13.8749 21.4961 13.0999 21.7816L17.9398 34.9184ZM25.0399 27.48C25.0399 27.3402 24.9475 21.9322 24.7689 11.4902L10.7709 11.7298C10.9522 22.3278 11.0399 27.4998 11.0399 27.48H25.0399ZM19.4676 4.819C18.8411 4.66238 18.2851 4.48596 17.7927 4.29658L12.767 17.3634C13.8346 17.774 14.9386 18.1176 16.0721 18.401L19.4676 4.819ZM22.2337 11.6324C22.292 11.1272 22.3373 10.7556 22.3704 10.5027C22.3872 10.3752 22.3978 10.3008 22.403 10.2669C22.4055 10.2503 22.4043 10.2595 22.3995 10.287C22.3965 10.3043 22.3811 10.3927 22.3532 10.5185L8.68657 7.48149C8.54612 8.11354 8.4212 9.20278 8.32602 10.0276L22.2337 11.6324ZM15.5199 16H23.4699V2H15.5199V16ZM23.4699 16C25.0596 16 25.747 16.1759 25.8679 16.2176L30.4318 2.98239C28.2327 2.22408 25.8001 2 23.4699 2V16ZM25.9026 16.2295C25.8963 16.2273 25.8874 16.2238 25.8781 16.2191C25.8689 16.2145 25.8652 16.2118 25.8681 16.2137C25.8712 16.2159 25.925 16.2525 26.021 16.3614L36.5187 7.09865C34.8862 5.24847 32.8396 3.79849 30.3972 2.97054L25.9026 16.2295ZM25.9551 16.2855C25.956 16.2866 25.9615 16.2931 25.971 16.3071C25.9805 16.3213 25.9958 16.3456 26.0152 16.3828C26.0541 16.4568 26.1136 16.5895 26.1761 16.8011C26.3048 17.2372 26.4299 17.9562 26.4299 19.05H40.4299C40.4299 14.91 39.5084 10.5855 36.5847 7.17446L25.9551 16.2855ZM23.8299 34.09C26.7701 34.09 31.4122 33.4437 34.1679 29.3472L22.5518 21.5328C23.171 20.6123 23.942 20.2221 24.2767 20.1002C24.5378 20.0051 24.4672 20.09 23.8299 20.09V34.09ZM34.119 29.419C36.171 26.449 36.4999 22.6655 36.4999 19.74H22.4999C22.4999 20.7942 22.4229 21.4566 22.3508 21.8172C22.3167 21.9878 22.2954 22.0304 22.3151 21.9785C22.3345 21.9276 22.4138 21.7315 22.6008 21.461L34.119 29.419ZM36.4999 19.74C36.4999 16.633 36.077 12.899 34.0054 9.89029L22.4743 17.8297C22.2255 17.4682 22.2586 17.3308 22.3403 17.7117C22.4184 18.0765 22.4999 18.7252 22.4999 19.74H36.4999ZM34.0353 9.93406C31.5018 6.19412 27.5248 5 24.0399 5V19C24.3066 19 24.1307 19.045 23.7254 18.8654C23.2543 18.6568 22.7772 18.2772 22.4445 17.7859L34.0353 9.93406ZM24.0399 5H21.8499V19H24.0399V5ZM14.8504 11.9169C14.7703 18.6597 14.7201 23.7065 14.7 27.0478L28.6998 27.1322C28.7196 23.8335 28.7694 18.8203 28.8494 12.0831L14.8504 11.9169ZM21.6999 34.09H23.8299V20.09H21.6999V34.09ZM40.5096 12.54L37.8686 6.05735L35.3651 7.07729L34.1969 9.51516L40.5096 12.54ZM40.2696 25.11L34.1177 28.4496L34.1278 28.4683L34.138 28.4868L40.2696 25.11ZM51.3396 11.28L45.8007 15.5601L45.8125 15.5755L45.8244 15.5907L51.3396 11.28ZM52.5096 25.08L59.0906 27.4656L59.0906 27.4656L52.5096 25.08ZM49.5696 28.92L53.5671 34.6663L53.5671 34.6663L49.5696 28.92ZM37.1796 27.63L31.7194 32.0102L31.734 32.0283L31.7487 32.0464L37.1796 27.63ZM44.2896 34.18C48.061 34.18 51.6356 32.5513 53.8911 29.0865C55.808 26.1419 56.2696 22.616 56.2696 19.53H42.2696C42.2696 20.4471 42.193 21.0448 42.1176 21.3925C42.0412 21.7445 41.9977 21.6951 42.1582 21.4485C42.3494 21.1549 42.7192 20.7573 43.278 20.4712C43.8114 20.198 44.2164 20.18 44.2896 20.18V34.18ZM56.2696 19.53C56.2696 16.444 55.808 12.9181 53.8911 9.97354C51.6356 6.50869 48.061 4.88 44.2896 4.88V18.88C44.2164 18.88 43.8114 18.862 43.278 18.5888C42.7192 18.3027 42.3494 17.9051 42.1582 17.6115C41.9977 17.3649 42.0412 17.3155 42.1176 17.6675C42.193 18.0152 42.2696 18.6129 42.2696 19.53H56.2696ZM44.2896 4.88C42.1501 4.88 39.9589 5.20574 37.8686 6.05735L43.1507 19.0226C43.2204 18.9943 43.5492 18.88 44.2896 18.88V4.88ZM34.1969 9.51516C32.7455 12.5443 32.1296 15.8428 32.1296 19.23H46.1296C46.1296 17.5372 46.4338 16.3757 46.8224 15.5648L34.1969 9.51516ZM32.1296 19.23C32.1296 22.3043 32.5682 25.5954 34.1177 28.4496L46.4216 21.7704C46.4564 21.8345 46.3735 21.7053 46.2867 21.2577C46.2005 20.8132 46.1296 20.1532 46.1296 19.23H32.1296ZM34.138 28.4868C36.418 32.6268 40.4796 34.18 44.2896 34.18V20.18C44.1474 20.18 44.494 20.1532 45.0492 20.4391C45.674 20.7608 46.1423 21.2628 46.4013 21.7332L34.138 28.4868ZM44.2896 15.64C45.3825 15.64 45.9245 15.7889 46.1023 15.8554C46.178 15.8838 46.1547 15.8847 46.0755 15.8284C45.9919 15.7689 45.8914 15.6776 45.8007 15.5601L56.8786 6.99987C53.6324 2.79884 48.6767 1.64 44.2896 1.64V15.64ZM45.8244 15.5907C45.779 15.5326 45.928 15.6942 46.0862 16.3151C46.2463 16.9437 46.3796 17.9055 46.3796 19.29H60.3796C60.3796 15.0366 59.6171 10.5034 56.8549 6.96926L45.8244 15.5907ZM46.3796 19.29C46.3796 20.9874 46.1572 22.0641 45.9287 22.6944L59.0906 27.4656C60.0221 24.8959 60.3796 22.1126 60.3796 19.29H46.3796ZM45.9287 22.6944C45.8353 22.9521 45.7487 23.0509 45.5722 23.1737L53.5671 34.6663C56.1506 32.8691 58.024 30.4079 59.0906 27.4656L45.9287 22.6944ZM45.5722 23.1737C45.6495 23.1199 45.3907 23.36 44.2896 23.36V37.36C47.4686 37.36 50.7297 36.6401 53.5671 34.6663L45.5722 23.1737ZM44.2896 23.36C43.285 23.36 42.7689 23.2166 42.5763 23.1427C42.4368 23.0891 42.5156 23.0968 42.6106 23.2136L31.7487 32.0464C35.0212 36.0708 39.7873 37.36 44.2896 37.36V23.36ZM42.6399 23.2498C42.5626 23.1535 41.9896 22.3191 41.9896 19.68H27.9896C27.9896 24.0009 28.8767 28.4665 31.7194 32.0102L42.6399 23.2498ZM41.9896 19.68C41.9896 16.814 42.6184 15.9691 42.6683 15.9098C42.6763 15.9003 42.6805 15.8965 42.6808 15.8962C42.6811 15.8959 42.6815 15.8955 42.6835 15.8941C42.6842 15.8936 42.7143 15.8715 42.7965 15.8389C42.9684 15.7709 43.4172 15.64 44.2896 15.64V1.64C39.7658 1.64 35.2048 3.03943 31.961 6.89015C28.9109 10.5109 27.9896 15.186 27.9896 19.68H41.9896ZM68.1235 15.78L67.8978 22.7764L68.0106 22.78H68.1235V15.78ZM67.1935 15.75L60.3893 17.3943L61.6412 22.5745L66.9678 22.7464L67.1935 15.75ZM66.3235 12.15L73.1276 10.5057L72.0468 6.0335L67.5128 5.25178L66.3235 12.15ZM59.8735 12.54L57.7162 5.8807L55.0426 6.7468L53.7102 9.2213L59.8735 12.54ZM58.8835 15.54L65.7518 16.8912L65.7518 16.8912L58.8835 15.54ZM66.5335 26.67L69.664 32.931L72.8313 31.3473L73.432 27.8575L66.5335 26.67ZM67.1635 23.01V16.01H61.2655L60.2649 21.8225L67.1635 23.01ZM70.0435 23.22L76.9693 22.2034L76.2617 17.3833L71.496 16.3724L70.0435 23.22ZM70.5235 28.53L74.7235 34.13L77.5235 32.03V28.53H70.5235ZM67.6135 29.73L65.5936 23.0277L65.5808 23.0316L65.5679 23.0355L67.6135 29.73ZM56.5735 11.37L51.1133 6.98982L51.0985 7.00817L51.0839 7.02662L56.5735 11.37ZM67.7335 9.33L65.2638 15.8799L65.283 15.8871L65.3023 15.8942L67.7335 9.33ZM70.4935 10.65H77.4935V6.79181L74.2314 4.73157L70.4935 10.65ZM70.0435 15.57L71.7412 22.361L76.2432 21.2355L76.9596 16.6506L70.0435 15.57ZM68.3492 8.78364L67.4192 8.75364L66.9678 22.7464L67.8978 22.7764L68.3492 8.78364ZM73.9976 14.1057L73.1276 10.5057L59.5193 13.7943L60.3893 17.3943L73.9976 14.1057ZM67.5128 5.25178C66.2739 5.03817 64.9181 4.85 63.7135 4.85V18.85C63.6386 18.85 63.7129 18.846 64.0016 18.8792C64.2706 18.9101 64.6428 18.9635 65.1341 19.0482L67.5128 5.25178ZM63.7135 4.85C61.6545 4.85 59.6302 5.26068 57.7162 5.8807L62.0307 19.1993C62.9567 18.8993 63.4924 18.85 63.7135 18.85V4.85ZM53.7102 9.2213C52.8541 10.8111 52.3403 12.5358 52.0151 14.1888L65.7518 16.8912C65.8255 16.5169 65.899 16.2487 65.9584 16.0686C66.0184 15.8868 66.0529 15.8288 66.0368 15.8587L53.7102 9.2213ZM52.0151 14.1888C51.7004 15.7886 51.5235 17.3944 51.5235 18.99H65.5235C65.5235 18.4256 65.5866 17.7314 65.7518 16.8912L52.0151 14.1888ZM51.5235 18.99C51.5235 22.1927 51.9444 25.7328 53.6505 28.6943C55.6925 32.2389 59.1951 34.27 63.2935 34.27V20.27C63.5373 20.27 64.0883 20.3325 64.7124 20.6936C65.3359 21.0544 65.6625 21.4992 65.7815 21.7057C65.8754 21.8689 65.7926 21.7952 65.696 21.2924C65.6018 20.802 65.5235 20.0545 65.5235 18.99H51.5235ZM63.2935 34.27C65.225 34.27 67.5174 34.0043 69.664 32.931L63.403 20.409C63.5571 20.332 63.6784 20.2876 63.7527 20.2639C63.8267 20.2403 63.8619 20.2346 63.8489 20.237C63.8359 20.2394 63.7847 20.2481 63.6891 20.2559C63.5939 20.2637 63.4632 20.27 63.2935 20.27V34.27ZM73.432 27.8575L74.062 24.1975L60.2649 21.8225L59.6349 25.4825L73.432 27.8575ZM67.1635 30.01C67.6722 30.01 68.0512 30.0244 68.3194 30.044C68.604 30.0647 68.6721 30.0849 68.5909 30.0676L71.496 16.3724C70.1113 16.0786 68.569 16.01 67.1635 16.01V30.01ZM63.1177 24.2366C63.4145 26.2589 63.5235 27.6528 63.5235 28.53H77.5235C77.5235 26.6872 77.3124 24.5411 76.9693 22.2034L63.1177 24.2366ZM66.3235 22.93C66.5895 22.7305 66.7817 22.6286 66.822 22.6075C66.8741 22.5802 66.8641 22.5888 66.7674 22.6286C66.566 22.7117 66.1926 22.8472 65.5936 23.0277L69.6333 36.4323C71.0294 36.0115 73.1305 35.3247 74.7235 34.13L66.3235 22.93ZM65.5679 23.0355C64.741 23.2882 64.0099 23.39 63.3535 23.39V37.39C65.497 37.39 67.606 37.0518 69.659 36.4245L65.5679 23.0355ZM63.3535 23.39C62.571 23.39 62.207 23.2682 62.1067 23.227C62.0592 23.2074 62.0552 23.2 62.073 23.2131C62.0914 23.2268 62.0978 23.2363 62.0885 23.2248C62.0335 23.1568 61.4135 22.2671 61.4135 19.35H47.4135C47.4135 23.7929 48.2835 28.4232 51.2085 32.0352C54.3621 35.9297 58.8578 37.39 63.3535 37.39V23.39ZM61.4135 19.35C61.4135 16.6619 61.9886 15.8075 62.063 15.7134L51.0839 7.02662C48.2784 10.5725 47.4135 15.0381 47.4135 19.35H61.4135ZM62.0337 15.7502C61.9466 15.8587 61.8624 15.8792 61.9646 15.8391C62.1198 15.7783 62.5872 15.64 63.5335 15.64V1.64C59.0494 1.64 54.3414 2.96572 51.1133 6.98982L62.0337 15.7502ZM63.5335 15.64C64.4434 15.64 64.9807 15.7731 65.2638 15.8799L70.2031 2.78012C68.0462 1.96688 65.7836 1.64 63.5335 1.64V15.64ZM65.3023 15.8942C66.046 16.1697 66.5035 16.4093 66.7555 16.5684L74.2314 4.73157C72.9634 3.93073 71.581 3.29031 70.1647 2.76576L65.3023 15.8942ZM63.4935 10.65C63.4935 11.5311 63.3931 12.7889 63.1274 14.4894L76.9596 16.6506C77.2939 14.5111 77.4935 12.4889 77.4935 10.65H63.4935ZM68.3457 8.779C68.4066 8.76379 68.4222 8.76464 68.3824 8.769C68.3427 8.77334 68.2585 8.78 68.1235 8.78V22.78C69.2814 22.78 70.5092 22.669 71.7412 22.361L68.3457 8.779ZM74.5681 27.63L69.3142 32.2557L74.5681 27.63ZM74.2381 11.37L68.7192 7.06402L68.7126 7.07242L74.2381 11.37ZM84.9481 9.18L82.967 15.8938L82.9817 15.8981L82.9964 15.9024L84.9481 9.18ZM87.4681 10.11L83.907 16.1365L84.0105 16.1977L84.1161 16.2553L87.4681 10.11ZM88.5181 10.77H95.5181V7.32318L92.7861 5.22163L88.5181 10.77ZM88.0381 15.03L90.9715 21.3857L94.1843 19.9029L94.8953 16.4366L88.0381 15.03ZM85.1881 15.33L78.3266 16.7155L79.3377 21.723L84.4151 22.2872L85.1881 15.33ZM84.5581 12.21L91.4196 10.8245L90.5651 6.59261L86.3999 5.45665L84.5581 12.21ZM77.5681 12.57L75.7263 5.81665L72.7068 6.64015L71.3071 9.4395L77.5681 12.57ZM84.9781 26.46L88.4099 32.561L91.8224 30.6415L91.9729 26.729L84.9781 26.46ZM85.0981 21.66L92.0969 21.7896L92.1943 16.5288L87.1679 14.973L85.0981 21.66ZM82.5781 20.88L75.6375 19.9698L74.87 25.8218L80.5083 27.567L82.5781 20.88ZM82.8181 19.05V12.05H76.6762L75.8775 18.1398L82.8181 19.05ZM90.0781 19.05L96.2234 15.698L94.2335 12.05H90.0781V19.05ZM90.6181 21.42L92.0297 28.2762L98.2438 26.9968L97.5796 20.6872L90.6181 21.42ZM88.4281 21.72L87.8912 14.7406L81.1201 15.2615L81.4356 22.0452L88.4281 21.72ZM88.6081 28.38L92.4443 34.2352L95.6081 32.1624V28.38H88.6081ZM85.4581 29.67L83.3502 22.9949L83.3502 22.9949L85.4581 29.67ZM81.0781 23.39C80.1227 23.39 79.9584 23.1593 79.8219 23.0043L69.3142 32.2557C72.4178 35.7807 76.5935 37.39 81.0781 37.39V23.39ZM79.8219 23.0043C79.7537 22.9268 79.1381 22.1475 79.1381 19.47H65.1381C65.1381 23.9925 66.1425 28.6532 69.3142 32.2557L79.8219 23.0043ZM79.1381 19.47C79.1381 16.5842 79.7322 15.7079 79.7636 15.6676L68.7126 7.07242C65.944 10.6321 65.1381 15.1558 65.1381 19.47H79.1381ZM79.757 15.676C79.7193 15.7244 79.6679 15.7747 79.615 15.8137C79.5643 15.851 79.5506 15.8496 79.6056 15.8277C79.7318 15.7775 80.1744 15.64 81.1081 15.64V1.64C76.6401 1.64 71.9123 2.97146 68.7192 7.06402L79.757 15.676ZM81.1081 15.64C81.8133 15.64 82.4238 15.7335 82.967 15.8938L86.9292 2.4662C85.0324 1.90648 83.0828 1.64 81.1081 1.64V15.64ZM82.9964 15.9024C83.5202 16.0545 83.8712 16.1708 84.0845 16.2496C84.1885 16.2879 84.2269 16.3053 84.2155 16.3002C84.2135 16.2994 84.0942 16.2471 83.907 16.1365L91.0292 4.08351C89.7377 3.32034 88.1037 2.80712 86.8998 2.45757L82.9964 15.9024ZM84.1161 16.2553C84.235 16.3201 84.3049 16.3623 84.3354 16.3815C84.3496 16.3904 84.3492 16.3905 84.3365 16.3818C84.3241 16.3732 84.2941 16.3522 84.2501 16.3184L92.7861 5.22163C92.128 4.71547 91.432 4.29853 90.8201 3.96473L84.1161 16.2553ZM81.5181 10.77C81.5181 11.4796 81.4279 12.4192 81.1809 13.6234L94.8953 16.4366C95.2883 14.5208 95.5181 12.6204 95.5181 10.77H81.5181ZM85.1047 8.67428C85.4102 8.53327 85.8864 8.39 86.4781 8.39V22.39C88.1098 22.39 89.626 22.0067 90.9715 21.3857L85.1047 8.67428ZM86.4781 8.39C86.147 8.39 85.9888 8.37589 85.9611 8.37281L84.4151 22.2872C85.1074 22.3641 85.8092 22.39 86.4781 22.39V8.39ZM92.0496 13.9445L91.4196 10.8245L77.6966 13.5955L78.3266 16.7155L92.0496 13.9445ZM86.3999 5.45665C84.9708 5.06689 83.4911 4.85 81.9781 4.85V18.85C82.1451 18.85 82.3854 18.8731 82.7163 18.9633L86.3999 5.45665ZM81.9781 4.85C79.9346 4.85 77.7978 5.2517 75.7263 5.81665L79.4099 19.3233C80.8584 18.9283 81.6616 18.85 81.9781 18.85V4.85ZM71.3071 9.4395C69.8242 12.4052 69.2481 15.6789 69.2481 18.99H83.2481C83.2481 17.2611 83.5519 16.2548 83.8291 15.7005L71.3071 9.4395ZM69.2481 18.99C69.2481 22.2057 69.6794 25.7674 71.4262 28.7434C73.5122 32.2973 77.0432 34.27 81.1081 34.27V20.27C81.3148 20.27 81.8347 20.3226 82.4386 20.6656C83.0467 21.0109 83.3748 21.4432 83.5 21.6566C83.599 21.8253 83.5179 21.7607 83.4216 21.2684C83.3275 20.7874 83.2481 20.0484 83.2481 18.99H69.2481ZM81.1081 34.27C83.4035 34.27 86.0229 33.9037 88.4099 32.561L81.5463 20.359C81.7984 20.2171 81.9344 20.1997 81.8565 20.216C81.7759 20.2328 81.5412 20.27 81.1081 20.27V34.27ZM91.9729 26.729C92.0157 25.6158 92.0567 23.9579 92.0969 21.7896L78.0993 21.5304C78.0594 23.6821 78.0204 25.2242 77.9833 26.191L91.9729 26.729ZM87.1679 14.973L84.6479 14.193L80.5083 27.567L83.0283 28.347L87.1679 14.973ZM89.5187 21.7902L89.7587 19.9602L75.8775 18.1398L75.6375 19.9698L89.5187 21.7902ZM82.8181 26.05H90.0781V12.05H82.8181V26.05ZM83.9328 22.402C83.8413 22.2343 83.7742 22.0896 83.7265 21.9778C83.6786 21.8654 83.6448 21.7734 83.6224 21.7076C83.5792 21.5812 83.5648 21.5136 83.568 21.5276C83.5704 21.538 83.5825 21.5941 83.5999 21.7058C83.617 21.8158 83.6366 21.9632 83.6565 22.1528L97.5796 20.6872C97.4559 19.5116 97.1916 17.4731 96.2234 15.698L83.9328 22.402ZM89.2065 14.5638C88.8487 14.6375 88.4135 14.7004 87.8912 14.7406L88.965 28.6994C90.0026 28.6196 91.0275 28.4825 92.0297 28.2762L89.2065 14.5638ZM81.4356 22.0452C81.5524 24.555 81.6081 26.6609 81.6081 28.38H95.6081C95.6081 26.3791 95.5438 24.045 95.4205 21.3948L81.4356 22.0452ZM84.7719 22.5248C84.9175 22.4294 84.9971 22.3922 84.9699 22.4057C84.9491 22.416 84.875 22.4514 84.7328 22.5097C84.4418 22.6288 83.9932 22.7918 83.3502 22.9949L87.566 36.3451C89.1139 35.8563 90.9851 35.1912 92.4443 34.2352L84.7719 22.5248ZM83.3502 22.9949C82.4192 23.2889 81.6717 23.39 81.0781 23.39V37.39C83.2845 37.39 85.4569 37.0111 87.566 36.3451L83.3502 22.9949ZM97.3163 12.54L94.6752 6.05735L92.1717 7.07729L91.0036 9.51516L97.3163 12.54ZM97.0763 25.11L90.9243 28.4496L90.9344 28.4683L90.9447 28.4868L97.0763 25.11ZM108.146 11.28L102.607 15.5601L102.619 15.5755L102.631 15.5907L108.146 11.28ZM109.316 25.08L115.897 27.4656L115.897 27.4656L109.316 25.08ZM106.376 28.92L110.374 34.6663L110.374 34.6663L106.376 28.92ZM93.9863 27.63L88.5261 32.0102L88.5406 32.0283L88.5553 32.0464L93.9863 27.63ZM101.096 34.18C104.868 34.18 108.442 32.5513 110.698 29.0865C112.615 26.1419 113.076 22.616 113.076 19.53H99.0763C99.0763 20.4471 98.9997 21.0448 98.9242 21.3925C98.8479 21.7445 98.8043 21.6951 98.9648 21.4485C99.156 21.1549 99.5259 20.7573 100.085 20.4712C100.618 20.198 101.023 20.18 101.096 20.18V34.18ZM113.076 19.53C113.076 16.444 112.615 12.9181 110.698 9.97354C108.442 6.50869 104.868 4.88 101.096 4.88V18.88C101.023 18.88 100.618 18.862 100.085 18.5888C99.5259 18.3027 99.156 17.9051 98.9648 17.6115C98.8043 17.3649 98.8479 17.3155 98.9242 17.6675C98.9997 18.0152 99.0763 18.6129 99.0763 19.53H113.076ZM101.096 4.88C98.9567 4.88 96.7655 5.20574 94.6752 6.05735L99.9574 19.0226C100.027 18.9943 100.356 18.88 101.096 18.88V4.88ZM91.0036 9.51516C89.5521 12.5443 88.9363 15.8428 88.9363 19.23H102.936C102.936 17.5372 103.24 16.3757 103.629 15.5648L91.0036 9.51516ZM88.9363 19.23C88.9363 22.3043 89.3748 25.5954 90.9243 28.4496L103.228 21.7704C103.263 21.8345 103.18 21.7053 103.093 21.2577C103.007 20.8132 102.936 20.1532 102.936 19.23H88.9363ZM90.9447 28.4868C93.2246 32.6268 97.2863 34.18 101.096 34.18V20.18C100.954 20.18 101.301 20.1532 101.856 20.4391C102.481 20.7608 102.949 21.2628 103.208 21.7332L90.9447 28.4868ZM101.096 15.64C102.189 15.64 102.731 15.7889 102.909 15.8554C102.985 15.8838 102.961 15.8847 102.882 15.8284C102.799 15.7689 102.698 15.6776 102.607 15.5601L113.685 6.99987C110.439 2.79884 105.483 1.64 101.096 1.64V15.64ZM102.631 15.5907C102.586 15.5326 102.735 15.6942 102.893 16.3151C103.053 16.9437 103.186 17.9055 103.186 19.29H117.186C117.186 15.0366 116.424 10.5034 113.661 6.96926L102.631 15.5907ZM103.186 19.29C103.186 20.9874 102.964 22.0641 102.735 22.6944L115.897 27.4656C116.829 24.8959 117.186 22.1126 117.186 19.29H103.186ZM102.735 22.6944C102.642 22.9521 102.555 23.0509 102.379 23.1737L110.374 34.6663C112.957 32.8691 114.831 30.4079 115.897 27.4656L102.735 22.6944ZM102.379 23.1737C102.456 23.1199 102.197 23.36 101.096 23.36V37.36C104.275 37.36 107.536 36.6401 110.374 34.6663L102.379 23.1737ZM101.096 23.36C100.092 23.36 99.5755 23.2166 99.3829 23.1427C99.2434 23.0891 99.3223 23.0968 99.4173 23.2136L88.5553 32.0464C91.8279 36.0708 96.5939 37.36 101.096 37.36V23.36ZM99.4465 23.2498C99.3692 23.1535 98.7963 22.3191 98.7963 19.68H84.7963C84.7963 24.0009 85.6834 28.4665 88.5261 32.0102L99.4465 23.2498ZM98.7963 19.68C98.7963 16.814 99.425 15.9691 99.4749 15.9098C99.483 15.9003 99.4871 15.8965 99.4874 15.8962C99.4878 15.8959 99.4881 15.8955 99.4901 15.8941C99.4908 15.8936 99.521 15.8715 99.6031 15.8389C99.775 15.7709 100.224 15.64 101.096 15.64V1.64C96.5724 1.64 92.0115 3.03943 88.7677 6.89015C85.7176 10.5109 84.7963 15.186 84.7963 19.68H98.7963Z" fill="#1DA1F2"/>
</g>
<defs>
<filter id="filter0_i_0_1" x="15.2798" y="8.64001" width="94.9067" height="25.75" filterUnits="userSpaceOnUse" color-interpolation-filters="sRGB">
<feFlood flood-opacity="0" result="BackgroundImageFix"/>
<feBlend mode="normal" in="SourceGraphic" in2="BackgroundImageFix" result="shape"/>
<feColorMatrix in="SourceAlpha" type="matrix" values="0 0 0 0 0 0 0 0 0 0 0 0 0 0 0 0 0 0 127 0" result="hardAlpha"/>
<feOffset dy="4"/>
<feGaussianBlur stdDeviation="2"/>
<feComposite in2="hardAlpha" operator="arithmetic" k2="-1" k3="1"/>
<feColorMatrix type="matrix" values="0 0 0 0 0 0 0 0 0 0 0 0 0 0 0 0 0 0 0.25 0"/>
<feBlend mode="normal" in2="shape" result="effect1_innerShadow_0_1"/>
</filter>
</defs>
</svg>
