<svg xmlns="http://www.w3.org/2000/svg" version="1.1" xmlnsXlink="http://www.w3.org/1999/xlink" xmlnsSvgjs="http://svgjs.dev/svgjs" width="100" height="623" viewBox="0 0 1000 623"><g transform="matrix(1,0,0,1,-0.6060606060606233,0.2522267206477409)"><svg viewBox="0 0 396 247" data-background-color="#046380" preserveAspectRatio="xMidYMid meet" height="623" width="1000" xmlns="http://www.w3.org/2000/svg" xmlnsXlink="http://www.w3.org/1999/xlink"><g id="tight-bounds" transform="matrix(1,0,0,1,0.2400000000000091,-0.09999999999999432)"><svg viewBox="0 0 395.52 247.2" height="247.2" width="395.52"><g><svg></svg></g><g><svg viewBox="0 0 395.52 247.2" height="247.2" width="395.52"><g transform="matrix(1,0,0,1,75.54432,100.21044744827586)"><svg viewBox="0 0 244.43135999999998 46.77910510344827" height="46.77910510344827" width="244.43135999999998"><g><svg viewBox="0 0 244.43135999999998 46.77910510344827" height="46.77910510344827" width="244.43135999999998"><g><svg viewBox="0 0 244.43135999999998 46.77910510344827" height="46.77910510344827" width="244.43135999999998"><g><svg viewBox="0 0 244.43135999999998 46.77910510344827" height="46.77910510344827" width="244.43135999999998"><g id="textblocktransform"><svg viewBox="0 0 244.43135999999998 46.77910510344827" height="46.77910510344827" width="244.43135999999998" id="textblock"><g><svg viewBox="0 0 244.43135999999998 46.77910510344827" height="46.77910510344827" width="244.43135999999998"><g transform="matrix(1,0,0,1,0,0)"><svg width="244.43135999999998" viewBox="3.200000047683716 -37.380001068115234 198.22999572753906 37.94000244140625" height="46.77910510344827" data-palette-color="#ffffff"><path d="M6.98-2.64L6.98-34.18 3.2-34.74 3.2-36.82 18.87-36.82Q28.56-36.82 33.96-32.08L33.96-32.08Q39.23-27.42 39.23-19.31L39.23-19.31Q39.23-13.48 36.52-8.89L36.52-8.89Q34.03-4.66 29.61-2.29L29.61-2.29Q25.32 0 20.36 0L20.36 0 3.2 0 3.2-2.08 6.98-2.64ZM18.75-33.86L11.5-33.86 11.5-2.93 20.31-2.93Q26.44-2.93 30.47-6.79L30.47-6.79Q34.62-10.82 34.62-17.31L34.62-17.31Q34.62-29.74 25.93-32.81L25.93-32.81Q22.92-33.86 18.75-33.86L18.75-33.86ZM48.42-4.74Q46.04-7.2 44.81-10.56 43.58-13.92 43.58-17.35 43.58-20.78 44.26-23.41 44.94-26.05 46.15-28.22 47.36-30.4 49.06-32.1 50.75-33.81 52.78-34.99L52.78-34.99Q56.91-37.38 61.62-37.38 66.33-37.38 69.8-36 73.26-34.62 75.63-32.2L75.63-32.2Q80.44-27.29 80.44-19.31L80.44-19.31Q80.44-10.42 75.05-4.81L75.05-4.81Q72.56-2.22 69.25-0.83 65.94 0.56 61.85 0.56 57.76 0.56 54.28-0.85 50.8-2.27 48.42-4.74ZM52-29.93Q50.22-27.86 49.25-25.1 48.29-22.34 48.29-19.7 48.29-17.07 48.68-14.97 49.07-12.87 49.84-11 50.61-9.13 51.77-7.54 52.93-5.96 54.47-4.81L54.47-4.81Q57.74-2.37 62.18-2.37L62.18-2.37Q68.26-2.37 72.07-6.49L72.07-6.49Q75.8-10.55 75.8-17.07L75.8-17.07Q75.8-24.24 72.56-29L72.56-29Q68.85-34.45 61.72-34.45L61.72-34.45Q55.83-34.45 52-29.93L52-29.93ZM105.39-37.38L105.39-37.38Q110.35-37.38 114.47-36.13L114.47-36.13Q116.28-35.57 117.5-34.89L117.5-34.89 116.94-28.37 115.33-28.37Q115.33-31.08 112.67-32.71L112.67-32.71Q109.83-34.45 104.88-34.45L104.88-34.45Q98.46-34.45 94.26-30.13L94.26-30.13Q90.08-25.78 90.08-19.26L90.08-19.26Q90.08-12.35 93.94-7.54L93.94-7.54Q96.55-4.3 100.56-3.03L100.56-3.03Q102.61-2.37 105.22-2.37 107.83-2.37 109.86-2.67 111.88-2.98 113.18-3.66L113.18-3.66Q115.72-5 115.72-8.2L115.72-8.2 117.33-8.2 117.67-1.9Q113.42 0.56 105.15 0.56L105.15 0.56Q96.02 0.56 90.57-4.74L90.57-4.74Q85.37-9.79 85.37-17.77L85.37-17.77Q85.37-26.61 91.52-32.18L91.52-32.18Q97.21-37.38 105.39-37.38ZM145.48-13.94L145.48-16.58 159.9-16.58 159.9-13.94 158.54-13.94Q157.81-13.94 157.43-13.71 157.05-13.48 157.05-12.84L157.05-12.84 157.05-2.29Q155.29-2.29 153.14-1.56L153.14-1.56 150.02-0.54Q146.53 0.56 142.49 0.56 138.44 0.56 134.84-0.89 131.24-2.34 128.7-4.86 126.16-7.37 124.78-10.77 123.41-14.16 123.41-17.59 123.41-21.02 124.13-23.63 124.85-26.25 126.14-28.39 127.43-30.54 129.23-32.21 131.02-33.89 133.17-35.03L133.17-35.03Q137.59-37.38 142.79-37.38L142.79-37.38Q150.82-37.38 155.53-34.89L155.53-34.89 154.97-28.86 153.36-28.86Q153.36-31.1 150.58-32.69L150.58-32.69Q147.5-34.45 142.67-34.45L142.67-34.45Q136.39-34.45 132.24-29.93L132.24-29.93Q128.19-25.54 128.19-19.26L128.19-19.26Q128.19-12.38 132-7.54L132-7.54Q136.1-2.37 143.06-2.37L143.06-2.37Q150.72-2.37 152.09-5.66L152.09-5.66Q152.51-6.69 152.51-7.89L152.51-7.89 152.51-12.84Q152.51-13.5 152.13-13.72 151.75-13.94 151.12-13.94L151.12-13.94 145.48-13.94ZM169.41-4.74Q167.03-7.2 165.8-10.56 164.57-13.92 164.57-17.35 164.57-20.78 165.25-23.41 165.93-26.05 167.14-28.22 168.35-30.4 170.05-32.1 171.74-33.81 173.77-34.99L173.77-34.99Q177.9-37.38 182.61-37.38 187.32-37.38 190.79-36 194.25-34.62 196.62-32.2L196.62-32.2Q201.43-27.29 201.43-19.31L201.43-19.31Q201.43-10.42 196.03-4.81L196.03-4.81Q193.54-2.22 190.24-0.83 186.93 0.56 182.84 0.56 178.75 0.56 175.27-0.85 171.79-2.27 169.41-4.74ZM172.99-29.93Q171.21-27.86 170.24-25.1 169.28-22.34 169.28-19.7 169.28-17.07 169.67-14.97 170.06-12.87 170.83-11 171.6-9.13 172.76-7.54 173.92-5.96 175.45-4.81L175.45-4.81Q178.73-2.37 183.17-2.37L183.17-2.37Q189.25-2.37 193.06-6.49L193.06-6.49Q196.79-10.55 196.79-17.07L196.79-17.07Q196.79-24.24 193.54-29L193.54-29Q189.83-34.45 182.7-34.45L182.7-34.45Q176.82-34.45 172.99-29.93L172.99-29.93Z" opacity="1" transform="matrix(1,0,0,1,0,0)" fill="#ffffff" class="wordmark-text-0" data-fill-palette-color="primary" id="text-0"></path></svg></g></svg></g></svg></g></svg></g></svg></g></svg></g></svg></g><path d="M206.776 94.21L206.776 33.103 387.769 33.103 387.769 214.097 206.776 214.097 206.776 152.99 210.995 152.99 210.995 209.878 383.551 209.878 383.551 37.322 210.995 37.322 210.995 94.21Z" fill="#ffffff" stroke="transparent" data-fill-palette-color="primary"></path></svg></g><defs></defs></svg><rect width="395.52" height="247.2" fill="none" stroke="none" visibility="hidden"></rect></g></svg></g></svg>