<svg version="1.1" id="Layer_1" xmlns="http://www.w3.org/2000/svg" xmlns:xlink="http://www.w3.org/1999/xlink" x="0px" y="0px"
	 width="100%" viewBox="0 0 100 50" enable-background="new 0 0 2000 1500" xml:space="preserve">
<path fill="#046380" opacity="1.000000" stroke="none" 
	d="
M1390.000000,1501.000000 
	C926.666809,1501.000000 463.833618,1501.000000 1.000310,1501.000000 
	C1.000207,1001.000305 1.000207,501.000580 1.000103,1.000646 
	C667.666199,1.000431 1334.332397,1.000431 2000.998901,1.000215 
	C2000.999268,500.999359 2000.999268,1000.998718 2000.999634,1500.999023 
	C1797.500000,1501.000000 1594.000000,1501.000000 1390.000000,1501.000000 
M1263.500000,1093.041138 
	C1415.602539,1093.041138 1567.705078,1093.041138 1719.908691,1093.041138 
	C1719.908691,864.451294 1719.908691,636.398010 1719.908691,408.236267 
	C1491.575928,408.236267 1263.518555,408.236267 1035.330811,408.236267 
	C1035.330811,485.252411 1035.330811,561.990845 1035.330811,638.852661 
	C1040.648438,638.852661 1045.699585,638.852661 1051.185059,638.852661 
	C1051.185059,567.128723 1051.185059,495.719696 1051.185059,424.223450 
	C1269.023682,424.223450 1486.423828,424.223450 1703.925537,424.223450 
	C1703.925537,641.881897 1703.925537,859.269104 1703.925537,1076.782227 
	C1486.254150,1076.782227 1268.860229,1076.782227 1051.029419,1076.782227 
	C1051.029419,1005.108826 1051.029419,933.698853 1051.029419,862.139893 
	C1045.539551,862.139893 1040.490601,862.139893 1035.343018,862.139893 
	C1035.343018,939.184692 1035.343018,1015.920410 1035.343018,1093.041138 
	C1111.245361,1093.041138 1186.872681,1093.041138 1263.500000,1093.041138 
M706.160339,738.124207 
	C703.846680,707.862732 689.062683,686.261169 661.313477,673.745728 
	C649.336304,668.343750 636.631409,665.371521 623.594055,665.125061 
	C596.115662,664.605591 568.624268,664.775452 541.138123,664.681519 
	C540.340027,664.678833 539.541138,664.890137 538.804443,664.993042 
	C537.538757,673.960754 537.539551,673.955933 545.709229,675.309753 
	C549.092285,675.870422 552.471069,676.456726 555.818970,677.025818 
	C555.818970,726.268433 555.818970,775.040649 555.818970,824.018005 
	C549.970825,824.970703 544.278625,825.898071 538.692871,826.808044 
	C538.692871,830.191040 538.692871,833.088867 538.692871,836.157593 
	C539.854065,836.231323 540.666321,836.327820 541.478577,836.327942 
	C567.467285,836.332520 593.456055,836.325867 619.444763,836.325195 
	C631.066162,836.324951 642.286804,834.184387 653.025085,829.765625 
	C688.999268,814.962280 709.268921,780.335876 706.160339,738.124207 
M1443.655273,688.836731 
	C1418.062622,661.273682 1371.343872,653.348633 1337.881958,671.328918 
	C1309.226440,686.726562 1295.181030,711.775269 1292.096802,743.487000 
	C1290.546021,759.432739 1292.036987,775.116272 1298.432861,789.994263 
	C1311.343018,820.025757 1335.210938,835.098022 1366.819824,838.480225 
	C1403.739746,842.430969 1435.394165,826.768066 1452.842163,793.825989 
	C1462.314453,775.942444 1464.691650,756.613525 1463.127930,736.656616 
	C1461.737061,718.905396 1455.926514,702.934448 1443.655273,688.836731 
M888.789490,702.720154 
	C865.301636,658.707642 802.823730,652.859802 768.801331,673.552307 
	C724.827759,700.297241 717.911377,760.096252 736.586548,796.269958 
	C759.215698,840.102539 823.614868,853.341736 864.267822,822.392273 
	C898.247864,796.523010 909.448059,742.825745 888.789490,702.720154 
M1216.487793,835.918030 
	C1229.533569,832.114624 1242.579224,828.311218 1256.449463,824.267395 
	C1256.449463,823.875244 1256.449463,822.239929 1256.449585,820.604675 
	C1256.450562,806.606567 1256.416870,792.608276 1256.469238,778.610352 
	C1256.491089,772.790771 1257.628784,771.649170 1263.449219,771.306152 
	C1265.512939,771.184570 1267.589600,771.286743 1269.464355,771.286743 
	C1269.464355,766.692322 1269.464355,762.955811 1269.464355,759.349915 
	C1246.991089,759.349915 1224.909790,759.349915 1202.749512,759.349915 
	C1202.749512,763.409973 1202.749512,767.144226 1202.749512,771.089172 
	C1203.860962,771.156860 1204.670410,771.246643 1205.480103,771.249146 
	C1213.145508,771.272888 1220.810913,771.255249 1228.476074,771.304932 
	C1233.039917,771.334534 1235.517822,773.130859 1235.265015,778.270264 
	C1234.929688,785.086182 1235.235474,791.931580 1235.169556,798.763306 
	C1235.046509,811.505981 1230.378540,818.984375 1218.039551,821.718994 
	C1207.443848,824.067322 1196.307861,825.026855 1185.438599,824.853943 
	C1167.768188,824.572815 1152.963989,816.972412 1141.456055,803.462524 
	C1126.661011,786.093872 1121.213989,765.639709 1121.942871,743.190063 
	C1123.550049,693.687012 1171.102905,659.065979 1225.032593,683.288879 
	C1232.690308,686.728394 1238.597046,692.355835 1239.407227,701.533203 
	C1241.996704,701.533203 1244.252808,701.533203 1246.708618,701.533203 
	C1247.455688,693.997314 1247.900513,686.688049 1248.992920,679.476929 
	C1249.727417,674.628662 1247.985596,672.451904 1243.540649,670.762756 
	C1221.889404,662.535034 1199.517334,660.320618 1176.727539,662.987000 
	C1153.439941,665.711609 1133.927246,676.145508 1118.976929,694.362488 
	C1105.311768,711.013611 1099.607910,730.559875 1099.553589,751.847046 
	C1099.477783,781.499329 1110.800537,805.747253 1135.319580,822.806458 
	C1159.819336,839.851929 1187.138550,842.197083 1216.487793,835.918030 
M977.513428,669.036621 
	C940.863037,685.102234 921.472595,715.557800 921.983215,756.255310 
	C922.457886,794.085144 946.067139,824.827271 982.467957,834.954224 
	C1001.432007,840.230103 1020.744385,840.244080 1039.929565,837.251526 
	C1049.991943,835.682068 1059.740723,832.003906 1069.545288,828.998169 
	C1070.819580,828.607483 1072.469971,826.515381 1072.434937,825.253174 
	C1072.187012,816.303589 1071.544922,807.364929 1071.024292,798.352295 
	C1068.420776,798.352295 1066.177979,798.352295 1063.999634,798.352295 
	C1060.226074,815.953064 1053.764404,821.999817 1035.755249,823.905945 
	C1027.171997,824.814392 1018.471497,825.262390 1009.849365,825.020325 
	C991.668640,824.509644 975.868958,817.672852 964.227234,803.662659 
	C942.463318,777.471008 938.018372,747.696411 950.077576,716.186768 
	C957.496521,696.801880 972.441833,684.152832 992.519348,678.369629 
	C1006.046204,674.473328 1019.897522,674.701721 1033.554443,677.811401 
	C1047.867798,681.070435 1060.125610,687.023376 1062.126953,703.835388 
	C1064.589355,703.835388 1066.724854,703.835388 1069.234741,703.835388 
	C1070.026489,694.938538 1070.646606,686.155823 1071.673218,677.420959 
	C1072.032471,674.365784 1071.152344,672.865784 1068.392578,671.811096 
	C1038.680420,660.454712 1008.700073,657.719604 977.513428,669.036621 
z"/>
<path fill="#FDFEFE" opacity="1.000000" stroke="none" 
	d="
M1263.000000,1093.041138 
	C1186.872681,1093.041138 1111.245361,1093.041138 1035.343018,1093.041138 
	C1035.343018,1015.920410 1035.343018,939.184692 1035.343018,862.139893 
	C1040.490601,862.139893 1045.539551,862.139893 1051.029419,862.139893 
	C1051.029419,933.698853 1051.029419,1005.108826 1051.029419,1076.782227 
	C1268.860229,1076.782227 1486.254150,1076.782227 1703.925537,1076.782227 
	C1703.925537,859.269104 1703.925537,641.881897 1703.925537,424.223450 
	C1486.423828,424.223450 1269.023682,424.223450 1051.185059,424.223450 
	C1051.185059,495.719696 1051.185059,567.128723 1051.185059,638.852661 
	C1045.699585,638.852661 1040.648438,638.852661 1035.330811,638.852661 
	C1035.330811,561.990845 1035.330811,485.252411 1035.330811,408.236267 
	C1263.518555,408.236267 1491.575928,408.236267 1719.908691,408.236267 
	C1719.908691,636.398010 1719.908691,864.451294 1719.908691,1093.041138 
	C1567.705078,1093.041138 1415.602539,1093.041138 1263.000000,1093.041138 
z"/>
<path fill="#FDFEFE" opacity="1.000000" stroke="none" 
	d="
M706.187744,738.581238 
	C709.268921,780.335876 688.999268,814.962280 653.025085,829.765625 
	C642.286804,834.184387 631.066162,836.324951 619.444763,836.325195 
	C593.456055,836.325867 567.467285,836.332520 541.478577,836.327942 
	C540.666321,836.327820 539.854065,836.231323 538.692871,836.157593 
	C538.692871,833.088867 538.692871,830.191040 538.692871,826.808044 
	C544.278625,825.898071 549.970825,824.970703 555.818970,824.018005 
	C555.818970,775.040649 555.818970,726.268433 555.818970,677.025818 
	C552.471069,676.456726 549.092285,675.870422 545.709229,675.309753 
	C537.539551,673.955933 537.538757,673.960754 538.804443,664.993042 
	C539.541138,664.890137 540.340027,664.678833 541.138123,664.681519 
	C568.624268,664.775452 596.115662,664.605591 623.594055,665.125061 
	C636.631409,665.371521 649.336304,668.343750 661.313477,673.745728 
	C689.062683,686.261169 703.846680,707.862732 706.187744,738.581238 
M577.079590,706.500000 
	C577.079590,745.098694 577.079590,783.697449 577.079590,822.036377 
	C594.526367,822.036377 611.516602,822.946960 628.371826,821.826660 
	C654.772522,820.071777 677.048584,799.971191 682.950562,774.288879 
	C686.257385,759.899170 685.422546,745.485779 682.854980,731.132690 
	C677.616516,701.847961 659.518921,683.546570 630.020447,680.120667 
	C612.906372,678.133118 595.467712,678.939209 578.174377,678.516235 
	C577.907104,678.509644 577.630920,678.864929 577.079590,679.242737 
	C577.079590,687.867371 577.079590,696.683716 577.079590,706.500000 
z"/>
<path fill="#FBFDFD" opacity="1.000000" stroke="none" 
	d="
M1443.885498,689.105713 
	C1455.926514,702.934448 1461.737061,718.905396 1463.127930,736.656616 
	C1464.691650,756.613525 1462.314453,775.942444 1452.842163,793.825989 
	C1435.394165,826.768066 1403.739746,842.430969 1366.819824,838.480225 
	C1335.210938,835.098022 1311.343018,820.025757 1298.432861,789.994263 
	C1292.036987,775.116272 1290.546021,759.432739 1292.096802,743.487000 
	C1295.181030,711.775269 1309.226440,686.726562 1337.881958,671.328918 
	C1371.343872,653.348633 1418.062622,661.273682 1443.885498,689.105713 
M1433.757202,793.105835 
	C1443.687988,773.377991 1443.532715,752.663391 1439.362183,731.708374 
	C1436.107910,715.356934 1429.313354,700.614746 1416.483276,689.491089 
	C1385.519897,662.645813 1336.138794,675.152588 1320.182373,714.069519 
	C1309.153076,740.969360 1311.543335,767.660828 1324.824829,793.080200 
	C1335.921143,814.317322 1354.063110,825.175415 1378.291748,825.238892 
	C1402.688110,825.302734 1421.157227,814.995605 1433.757202,793.105835 
z"/>
<path fill="#FCFDFD" opacity="1.000000" stroke="none" 
	d="
M888.938477,703.059326 
	C909.448059,742.825745 898.247864,796.523010 864.267822,822.392273 
	C823.614868,853.341736 759.215698,840.102539 736.586548,796.269958 
	C717.911377,760.096252 724.827759,700.297241 768.801331,673.552307 
	C802.823730,652.859802 865.301636,658.707642 888.938477,703.059326 
M751.521484,725.217407 
	C746.307922,747.395386 748.498352,768.932861 758.141785,789.456787 
	C770.375854,815.494507 793.293762,827.856079 822.424133,824.902161 
	C847.509216,822.358459 868.224182,804.428467 874.512085,778.596497 
	C879.681580,757.359497 877.934998,736.240295 869.901611,715.882385 
	C857.743286,685.071106 830.568848,670.062927 798.247559,677.160767 
	C772.905212,682.726135 759.016846,700.557312 751.521484,725.217407 
z"/>
<path fill="#FBFDFD" opacity="1.000000" stroke="none" 
	d="
M1216.075684,835.981812 
	C1187.138550,842.197083 1159.819336,839.851929 1135.319580,822.806458 
	C1110.800537,805.747253 1099.477783,781.499329 1099.553589,751.847046 
	C1099.607910,730.559875 1105.311768,711.013611 1118.976929,694.362488 
	C1133.927246,676.145508 1153.439941,665.711609 1176.727539,662.987000 
	C1199.517334,660.320618 1221.889404,662.535034 1243.540649,670.762756 
	C1247.985596,672.451904 1249.727417,674.628662 1248.992920,679.476929 
	C1247.900513,686.688049 1247.455688,693.997314 1246.708618,701.533203 
	C1244.252808,701.533203 1241.996704,701.533203 1239.407227,701.533203 
	C1238.597046,692.355835 1232.690308,686.728394 1225.032593,683.288879 
	C1171.102905,659.065979 1123.550049,693.687012 1121.942871,743.190063 
	C1121.213989,765.639709 1126.661011,786.093872 1141.456055,803.462524 
	C1152.963989,816.972412 1167.768188,824.572815 1185.438599,824.853943 
	C1196.307861,825.026855 1207.443848,824.067322 1218.039551,821.718994 
	C1230.378540,818.984375 1235.046509,811.505981 1235.169556,798.763306 
	C1235.235474,791.931580 1234.929688,785.086182 1235.265015,778.270264 
	C1235.517822,773.130859 1233.039917,771.334534 1228.476074,771.304932 
	C1220.810913,771.255249 1213.145508,771.272888 1205.480103,771.249146 
	C1204.670410,771.246643 1203.860962,771.156860 1202.749512,771.089172 
	C1202.749512,767.144226 1202.749512,763.409973 1202.749512,759.349915 
	C1224.909790,759.349915 1246.991089,759.349915 1269.464355,759.349915 
	C1269.464355,762.955811 1269.464355,766.692322 1269.464355,771.286743 
	C1267.589600,771.286743 1265.512939,771.184570 1263.449219,771.306152 
	C1257.628784,771.649170 1256.491089,772.790771 1256.469238,778.610352 
	C1256.416870,792.608276 1256.450562,806.606567 1256.449585,820.604675 
	C1256.449463,822.239929 1256.449463,823.875244 1256.449463,824.267395 
	C1242.579224,828.311218 1229.533569,832.114624 1216.075684,835.981812 
z"/>
<path fill="#FBFCFD" opacity="1.000000" stroke="none" 
	d="
M977.880554,668.919006 
	C1008.700073,657.719604 1038.680420,660.454712 1068.392578,671.811096 
	C1071.152344,672.865784 1072.032471,674.365784 1071.673218,677.420959 
	C1070.646606,686.155823 1070.026489,694.938538 1069.234741,703.835388 
	C1066.724854,703.835388 1064.589355,703.835388 1062.126953,703.835388 
	C1060.125610,687.023376 1047.867798,681.070435 1033.554443,677.811401 
	C1019.897522,674.701721 1006.046204,674.473328 992.519348,678.369629 
	C972.441833,684.152832 957.496521,696.801880 950.077576,716.186768 
	C938.018372,747.696411 942.463318,777.471008 964.227234,803.662659 
	C975.868958,817.672852 991.668640,824.509644 1009.849365,825.020325 
	C1018.471497,825.262390 1027.171997,824.814392 1035.755249,823.905945 
	C1053.764404,821.999817 1060.226074,815.953064 1063.999634,798.352295 
	C1066.177979,798.352295 1068.420776,798.352295 1071.024292,798.352295 
	C1071.544922,807.364929 1072.187012,816.303589 1072.434937,825.253174 
	C1072.469971,826.515381 1070.819580,828.607483 1069.545288,828.998169 
	C1059.740723,832.003906 1049.991943,835.682068 1039.929565,837.251526 
	C1020.744385,840.244080 1001.432007,840.230103 982.467957,834.954224 
	C946.067139,824.827271 922.457886,794.085144 921.983215,756.255310 
	C921.472595,715.557800 940.863037,685.102234 977.880554,668.919006 
z"/>
<path fill="#056481" opacity="1.000000" stroke="none" 
	d="
M577.079590,706.000000 
	C577.079590,696.683716 577.079590,687.867371 577.079590,679.242737 
	C577.630920,678.864929 577.907104,678.509644 578.174377,678.516235 
	C595.467712,678.939209 612.906372,678.133118 630.020447,680.120667 
	C659.518921,683.546570 677.616516,701.847961 682.854980,731.132690 
	C685.422546,745.485779 686.257385,759.899170 682.950562,774.288879 
	C677.048584,799.971191 654.772522,820.071777 628.371826,821.826660 
	C611.516602,822.946960 594.526367,822.036377 577.079590,822.036377 
	C577.079590,783.697449 577.079590,745.098694 577.079590,706.000000 
z"/>
<path fill="#056380" opacity="1.000000" stroke="none" 
	d="
M1433.554932,793.418640 
	C1421.157227,814.995605 1402.688110,825.302734 1378.291748,825.238892 
	C1354.063110,825.175415 1335.921143,814.317322 1324.824829,793.080200 
	C1311.543335,767.660828 1309.153076,740.969360 1320.182373,714.069519 
	C1336.138794,675.152588 1385.519897,662.645813 1416.483276,689.491089 
	C1429.313354,700.614746 1436.107910,715.356934 1439.362183,731.708374 
	C1443.532715,752.663391 1443.687988,773.377991 1433.554932,793.418640 
z"/>
<path fill="#056380" opacity="1.000000" stroke="none" 
	d="
M751.663757,724.833496 
	C759.016846,700.557312 772.905212,682.726135 798.247559,677.160767 
	C830.568848,670.062927 857.743286,685.071106 869.901611,715.882385 
	C877.934998,736.240295 879.681580,757.359497 874.512085,778.596497 
	C868.224182,804.428467 847.509216,822.358459 822.424133,824.902161 
	C793.293762,827.856079 770.375854,815.494507 758.141785,789.456787 
	C748.498352,768.932861 746.307922,747.395386 751.663757,724.833496 
z"/>
</svg>