<svg width="96" height="23" viewBox="0 0 96 23" fill="none" xmlns="http://www.w3.org/2000/svg">
<rect width="96" height="23" fill="#F5F5F5"/>
<g filter="url(#filter0_i_0_1)">
<path d="M15.2799 20.23L19.6215 25.7209L19.6688 25.6836L19.7154 25.6454L15.2799 20.23ZM12.4899 21.64L14.1235 28.4467L14.1876 28.4313L14.2513 28.4148L12.4899 21.64ZM0.789883 22L-6.11824 23.1304L-5.15776 29H0.789883V22ZM0.519883 20.35L-1.90005 13.7816L-7.32122 15.7789L-6.38824 21.4804L0.519883 20.35ZM3.03988 19.48L3.90813 26.4259L10.0399 25.6595V19.48H3.03988ZM2.76988 3.61L9.76886 3.49024L9.677 -1.87866L4.46763 -3.181L2.76988 3.61ZM0.279883 2.83L-6.67398 2.02763L-7.29574 7.41619L-2.23298 9.36342L0.279883 2.83ZM0.519883 0.999999V-6H-5.09532L-6.31343 -0.518514L0.519883 0.999999ZM13.1499 1.6L10.8679 8.21761L10.8853 8.22358L10.9026 8.22946L13.1499 1.6ZM16.2699 3.73L21.5847 -0.825542L21.552 -0.863684L21.5187 -0.901353L16.2699 3.73ZM13.3599 17.44L7.60077 13.461L7.57608 13.4967L7.55183 13.5328L13.3599 17.44ZM13.2399 5.86L7.44445 9.78594L7.45932 9.80788L7.47435 9.82971L13.2399 5.86ZM6.84988 4V-3H-0.0675237L-0.149624 3.91692L6.84988 4ZM6.69988 19.09L-0.29999 19.0478L-0.342412 26.09H6.69988V19.09ZM11.4299 11.05C11.4299 12.736 11.2233 13.7846 11.0213 14.3731C10.8368 14.9108 10.7094 14.9252 10.8444 14.8146L19.7154 25.6454C24.2242 21.9524 25.4299 16.2609 25.4299 11.05H11.4299ZM10.9382 14.7391C10.7926 14.8542 10.7319 14.8643 10.7284 14.8652L14.2513 28.4148C16.2478 27.8957 18.0471 26.9658 19.6215 25.7209L10.9382 14.7391ZM10.8563 14.8333C10.6058 14.8934 9.90569 15 8.55988 15V29C10.4541 29 12.3739 28.8666 14.1235 28.4467L10.8563 14.8333ZM8.55988 15H0.789883V29H8.55988V15ZM7.698 20.8696L7.428 19.2196L-6.38824 21.4804L-6.11824 23.1304L7.698 20.8696ZM2.93982 26.9184C3.68487 26.6439 4.22219 26.4508 4.57425 26.3293C4.75506 26.2668 4.84294 26.2386 4.86507 26.2317C4.87823 26.2276 4.82945 26.2432 4.74207 26.2663C4.69733 26.2782 4.61299 26.2999 4.50195 26.3243C4.40926 26.3446 4.19261 26.3904 3.90813 26.4259L2.17164 12.5341C1.65501 12.5986 1.24146 12.7108 1.15394 12.734C0.984071 12.779 0.831533 12.8249 0.719691 12.8595C0.491828 12.9302 0.244705 13.0132 0.00552074 13.0957C-0.482426 13.2642 -1.12511 13.4961 -1.90005 13.7816L2.93982 26.9184ZM10.0399 19.48C10.0399 19.3402 9.94752 13.9322 9.76886 3.49024L-4.22909 3.72975C-4.04776 14.3278 -3.96012 19.4998 -3.96012 19.48H10.0399ZM4.46763 -3.181C3.84113 -3.33762 3.28512 -3.51404 2.79274 -3.70342L-2.23298 9.36342C-1.16535 9.77404 -0.0613671 10.1176 1.07214 10.401L4.46763 -3.181ZM7.23375 3.63237C7.29203 3.12723 7.33729 2.75558 7.37045 2.50274C7.38718 2.37517 7.39783 2.30085 7.403 2.26686C7.40551 2.25033 7.40428 2.25952 7.39949 2.28704C7.39649 2.30429 7.38114 2.39275 7.35319 2.51851L-6.31343 -0.518514C-6.45388 0.11354 -6.5788 1.20278 -6.67398 2.02763L7.23375 3.63237ZM0.519883 8H8.46988V-6H0.519883V8ZM8.46988 8C10.0596 8 10.747 8.17592 10.8679 8.21761L15.4318 -5.01761C13.2327 -5.77592 10.8001 -6 8.46988 -6V8ZM10.9026 8.22946C10.8963 8.22734 10.8874 8.22376 10.8781 8.21912C10.8689 8.2145 10.8652 8.21178 10.8681 8.21374C10.8712 8.2159 10.925 8.25255 11.021 8.36135L21.5187 -0.901353C19.8862 -2.75153 17.8396 -4.20151 15.3972 -5.02946L10.9026 8.22946ZM10.9551 8.28554C10.956 8.28664 10.9615 8.29308 10.971 8.30714C10.9805 8.32131 10.9958 8.34564 11.0152 8.3828C11.0541 8.45682 11.1136 8.5895 11.1761 8.80112C11.3048 9.23719 11.4299 9.95623 11.4299 11.05H25.4299C25.4299 6.91002 24.5084 2.5855 21.5847 -0.825542L10.9551 8.28554ZM8.82988 26.09C11.7701 26.09 16.4122 25.4437 19.1679 21.3472L7.55183 13.5328C8.17102 12.6123 8.94204 12.2221 9.27668 12.1002C9.53784 12.0051 9.4672 12.09 8.82988 12.09V26.09ZM19.119 21.419C21.171 18.449 21.4999 14.6655 21.4999 11.74H7.49988C7.49988 12.7942 7.42294 13.4566 7.35082 13.8172C7.3167 13.9878 7.29543 14.0304 7.31515 13.9785C7.33448 13.9276 7.41383 13.7315 7.60077 13.461L19.119 21.419ZM21.4999 11.74C21.4999 8.63299 21.077 4.89904 19.0054 1.89029L7.47435 9.82971C7.22546 9.46823 7.25864 9.33077 7.34027 9.7117C7.41845 10.0765 7.49988 10.7252 7.49988 11.74H21.4999ZM19.0353 1.93406C16.5018 -1.80588 12.5248 -3 9.03988 -3V11C9.3066 11 9.13074 11.045 8.7254 10.8654C8.25431 10.6568 7.77723 10.2772 7.44445 9.78594L19.0353 1.93406ZM9.03988 -3H6.84988V11H9.03988V-3ZM-0.149624 3.91692C-0.229657 10.6597 -0.279861 15.7065 -0.29999 19.0478L13.6998 19.1322C13.7196 15.8335 13.7694 10.8203 13.8494 4.08308L-0.149624 3.91692ZM6.69988 26.09H8.82988V12.09H6.69988V26.09ZM25.5096 4.54L22.8686 -1.94265L20.3651 -0.922706L19.1969 1.51516L25.5096 4.54ZM25.2696 17.11L19.1177 20.4496L19.1278 20.4683L19.138 20.4868L25.2696 17.11ZM36.3396 3.28L30.8007 7.56013L30.8125 7.57547L30.8244 7.59074L36.3396 3.28ZM37.5096 17.08L44.0906 19.4656L44.0906 19.4656L37.5096 17.08ZM34.5696 20.92L38.5671 26.6663L38.5671 26.6663L34.5696 20.92ZM22.1796 19.63L16.7194 24.0102L16.734 24.0283L16.7487 24.0464L22.1796 19.63ZM29.2896 26.18C33.061 26.18 36.6356 24.5513 38.8911 21.0865C40.808 18.1419 41.2696 14.616 41.2696 11.53H27.2696C27.2696 12.4471 27.193 13.0448 27.1176 13.3925C27.0412 13.7445 26.9977 13.6951 27.1582 13.4485C27.3494 13.1549 27.7192 12.7573 28.278 12.4712C28.8114 12.198 29.2164 12.18 29.2896 12.18V26.18ZM41.2696 11.53C41.2696 8.444 40.808 4.91807 38.8911 1.97354C36.6356 -1.49131 33.061 -3.12 29.2896 -3.12V10.88C29.2164 10.88 28.8114 10.862 28.278 10.5888C27.7192 10.3027 27.3494 9.90515 27.1582 9.61146C26.9977 9.36491 27.0412 9.31549 27.1176 9.66753C27.193 10.0152 27.2696 10.6129 27.2696 11.53H41.2696ZM29.2896 -3.12C27.1501 -3.12 24.9589 -2.79426 22.8686 -1.94265L28.1507 11.0226C28.2204 10.9943 28.5492 10.88 29.2896 10.88V-3.12ZM19.1969 1.51516C17.7455 4.54434 17.1296 7.84281 17.1296 11.23H31.1296C31.1296 9.53719 31.4338 8.37565 31.8224 7.56484L19.1969 1.51516ZM17.1296 11.23C17.1296 14.3043 17.5682 17.5954 19.1177 20.4496L31.4216 13.7704C31.4564 13.8345 31.3735 13.7053 31.2867 13.2577C31.2005 12.8132 31.1296 12.1532 31.1296 11.23H17.1296ZM19.138 20.4868C21.418 24.6268 25.4796 26.18 29.2896 26.18V12.18C29.1474 12.18 29.494 12.1532 30.0492 12.4391C30.674 12.7608 31.1423 13.2628 31.4013 13.7332L19.138 20.4868ZM29.2896 7.64C30.3825 7.64 30.9245 7.78887 31.1023 7.85545C31.178 7.88377 31.1547 7.8847 31.0755 7.8284C30.9919 7.76886 30.8914 7.67759 30.8007 7.56013L41.8786 -1.00013C38.6324 -5.20116 33.6767 -6.36 29.2896 -6.36V7.64ZM30.8244 7.59074C30.779 7.53259 30.928 7.69416 31.0862 8.31512C31.2463 8.94375 31.3796 9.90553 31.3796 11.29H45.3796C45.3796 7.03656 44.6171 2.50335 41.8549 -1.03074L30.8244 7.59074ZM31.3796 11.29C31.3796 12.9874 31.1572 14.0641 30.9287 14.6944L44.0906 19.4656C45.0221 16.8959 45.3796 14.1126 45.3796 11.29H31.3796ZM30.9287 14.6944C30.8353 14.9521 30.7487 15.0509 30.5722 15.1737L38.5671 26.6663C41.1506 24.8691 43.024 22.4079 44.0906 19.4656L30.9287 14.6944ZM30.5722 15.1737C30.6495 15.1199 30.3907 15.36 29.2896 15.36V29.36C32.4686 29.36 35.7297 28.6401 38.5671 26.6663L30.5722 15.1737ZM29.2896 15.36C28.285 15.36 27.7689 15.2166 27.5763 15.1427C27.4368 15.0891 27.5156 15.0968 27.6106 15.2136L16.7487 24.0464C20.0212 28.0708 24.7873 29.36 29.2896 29.36V15.36ZM27.6399 15.2498C27.5626 15.1535 26.9896 14.3191 26.9896 11.68H12.9896C12.9896 16.0009 13.8767 20.4665 16.7194 24.0102L27.6399 15.2498ZM26.9896 11.68C26.9896 8.81402 27.6184 7.96908 27.6683 7.90985C27.6763 7.90028 27.6805 7.8965 27.6808 7.89618C27.6811 7.8959 27.6815 7.89551 27.6835 7.8941C27.6842 7.89358 27.7143 7.87146 27.7965 7.83895C27.9684 7.77092 28.4172 7.64 29.2896 7.64V-6.36C24.7658 -6.36 20.2048 -4.96057 16.961 -1.10985C13.9109 2.51092 12.9896 7.18598 12.9896 11.68H26.9896ZM53.1235 7.78L52.8978 14.7764L53.0106 14.78H53.1235V7.78ZM52.1935 7.75L45.3893 9.39433L46.6412 14.5745L51.9678 14.7464L52.1935 7.75ZM51.3235 4.15L58.1276 2.50567L57.0468 -1.9665L52.5128 -2.74822L51.3235 4.15ZM44.8735 4.54L42.7162 -2.1193L40.0426 -1.2532L38.7102 1.2213L44.8735 4.54ZM43.8835 7.54L50.7518 8.89115L50.7518 8.89115L43.8835 7.54ZM51.5335 18.67L54.664 24.931L57.8313 23.3473L58.432 19.8575L51.5335 18.67ZM52.1635 15.01V8.01H46.2655L45.2649 13.8225L52.1635 15.01ZM55.0435 15.22L61.9693 14.2034L61.2617 9.38327L56.496 8.37236L55.0435 15.22ZM55.5235 20.53L59.7235 26.13L62.5235 24.03V20.53H55.5235ZM52.6135 21.73L50.5936 15.0277L50.5808 15.0316L50.5679 15.0355L52.6135 21.73ZM41.5735 3.37L36.1133 -1.01018L36.0985 -0.991828L36.0839 -0.973376L41.5735 3.37ZM52.7335 1.33L50.2638 7.87988L50.283 7.88712L50.3023 7.89424L52.7335 1.33ZM55.4935 2.65H62.4935V-1.20819L59.2314 -3.26843L55.4935 2.65ZM55.0435 7.57L56.7412 14.361L61.2432 13.2355L61.9596 8.65064L55.0435 7.57ZM53.3492 0.783638L52.4192 0.753638L51.9678 14.7464L52.8978 14.7764L53.3492 0.783638ZM58.9976 6.10567L58.1276 2.50567L44.5193 5.79433L45.3893 9.39433L58.9976 6.10567ZM52.5128 -2.74822C51.2739 -2.96183 49.9181 -3.15 48.7135 -3.15V10.85C48.6386 10.85 48.7129 10.846 49.0016 10.8792C49.2706 10.9101 49.6428 10.9635 50.1341 11.0482L52.5128 -2.74822ZM48.7135 -3.15C46.6545 -3.15 44.6302 -2.73932 42.7162 -2.1193L47.0307 11.1993C47.9567 10.8993 48.4924 10.85 48.7135 10.85V-3.15ZM38.7102 1.2213C37.8541 2.8111 37.3403 4.53581 37.0151 6.18885L50.7518 8.89115C50.8255 8.51693 50.899 8.24869 50.9584 8.06864C51.0184 7.88682 51.0529 7.82878 51.0368 7.8587L38.7102 1.2213ZM37.0151 6.18885C36.7004 7.78865 36.5235 9.39443 36.5235 10.99H50.5235C50.5235 10.4256 50.5866 9.73135 50.7518 8.89115L37.0151 6.18885ZM36.5235 10.99C36.5235 14.1927 36.9444 17.7328 38.6505 20.6943C40.6925 24.2389 44.1951 26.27 48.2935 26.27V12.27C48.5373 12.27 49.0883 12.3325 49.7124 12.6936C50.3359 13.0544 50.6625 13.4992 50.7815 13.7057C50.8754 13.8689 50.7926 13.7952 50.696 13.2924C50.6018 12.802 50.5235 12.0545 50.5235 10.99H36.5235ZM48.2935 26.27C50.225 26.27 52.5174 26.0043 54.664 24.931L48.403 12.409C48.5571 12.332 48.6784 12.2876 48.7527 12.2639C48.8267 12.2403 48.8619 12.2346 48.8489 12.237C48.8359 12.2394 48.7847 12.2481 48.6891 12.2559C48.5939 12.2637 48.4632 12.27 48.2935 12.27V26.27ZM58.432 19.8575L59.062 16.1975L45.2649 13.8225L44.6349 17.4825L58.432 19.8575ZM52.1635 22.01C52.6722 22.01 53.0512 22.0244 53.3194 22.044C53.604 22.0647 53.6721 22.0849 53.5909 22.0676L56.496 8.37236C55.1113 8.07864 53.569 8.01 52.1635 8.01V22.01ZM48.1177 16.2366C48.4145 18.2589 48.5235 19.6528 48.5235 20.53H62.5235C62.5235 18.6872 62.3124 16.5411 61.9693 14.2034L48.1177 16.2366ZM51.3235 14.93C51.5895 14.7305 51.7817 14.6286 51.822 14.6075C51.8741 14.5802 51.8641 14.5888 51.7674 14.6286C51.566 14.7117 51.1926 14.8472 50.5936 15.0277L54.6333 28.4323C56.0294 28.0115 58.1305 27.3247 59.7235 26.13L51.3235 14.93ZM50.5679 15.0355C49.741 15.2882 49.0099 15.39 48.3535 15.39V29.39C50.497 29.39 52.606 29.0518 54.659 28.4245L50.5679 15.0355ZM48.3535 15.39C47.571 15.39 47.207 15.2682 47.1067 15.227C47.0592 15.2074 47.0552 15.2 47.073 15.2131C47.0914 15.2268 47.0978 15.2363 47.0885 15.2248C47.0335 15.1568 46.4135 14.2671 46.4135 11.35H32.4135C32.4135 15.7929 33.2835 20.4232 36.2085 24.0352C39.3621 27.9297 43.8578 29.39 48.3535 29.39V15.39ZM46.4135 11.35C46.4135 8.66186 46.9886 7.80748 47.063 7.71337L36.0839 -0.973376C33.2784 2.57252 32.4135 7.03814 32.4135 11.35H46.4135ZM47.0337 7.75018C46.9466 7.8587 46.8624 7.87922 46.9646 7.83912C47.1198 7.77825 47.5872 7.64 48.5335 7.64V-6.36C44.0494 -6.36 39.3414 -5.03428 36.1133 -1.01018L47.0337 7.75018ZM48.5335 7.64C49.4434 7.64 49.9807 7.77312 50.2638 7.87988L55.2031 -5.21988C53.0462 -6.03312 50.7836 -6.36 48.5335 -6.36V7.64ZM50.3023 7.89424C51.046 8.16968 51.5035 8.40927 51.7555 8.56842L59.2314 -3.26843C57.9634 -4.06927 56.581 -4.70969 55.1647 -5.23424L50.3023 7.89424ZM48.4935 2.65C48.4935 3.53114 48.3931 4.78885 48.1274 6.48936L61.9596 8.65064C62.2939 6.51115 62.4935 4.48886 62.4935 2.65H48.4935ZM53.3457 0.779001C53.4066 0.763788 53.4222 0.764641 53.3824 0.768997C53.3427 0.773343 53.2585 0.779999 53.1235 0.779999V14.78C54.2814 14.78 55.5092 14.669 56.7412 14.361L53.3457 0.779001ZM59.5681 19.63L54.3142 24.2557L59.5681 19.63ZM59.2381 3.37L53.7192 -0.935985L53.7126 -0.927585L59.2381 3.37ZM69.9481 1.18L67.967 7.8938L67.9817 7.89815L67.9964 7.90242L69.9481 1.18ZM72.4681 2.11L68.907 8.13648L69.0105 8.19767L69.1161 8.25527L72.4681 2.11ZM73.5181 2.77H80.5181V-0.676815L77.7861 -2.77837L73.5181 2.77ZM73.0381 7.03L75.9715 13.3857L79.1843 11.9029L79.8953 8.43661L73.0381 7.03ZM70.1881 7.33L63.3266 8.7155L64.3377 13.723L69.4151 14.2872L70.1881 7.33ZM69.5581 4.21L76.4196 2.8245L75.5651 -1.40739L71.3999 -2.54335L69.5581 4.21ZM62.5681 4.57L60.7263 -2.18335L57.7068 -1.35985L56.3071 1.4395L62.5681 4.57ZM69.9781 18.46L73.4099 24.561L76.8224 22.6415L76.9729 18.729L69.9781 18.46ZM70.0981 13.66L77.0969 13.7896L77.1943 8.5288L72.1679 6.973L70.0981 13.66ZM67.5781 12.88L60.6375 11.9698L59.87 17.8218L65.5083 19.567L67.5781 12.88ZM67.8181 11.05V4.05H61.6762L60.8775 10.1398L67.8181 11.05ZM75.0781 11.05L81.2234 7.69803L79.2335 4.05H75.0781V11.05ZM75.6181 13.42L77.0297 20.2762L83.2438 18.9968L82.5796 12.6872L75.6181 13.42ZM73.4281 13.72L72.8912 6.74062L66.1201 7.26147L66.4356 14.0452L73.4281 13.72ZM73.6081 20.38L77.4443 26.2352L80.6081 24.1624V20.38H73.6081ZM70.4581 21.67L68.3502 14.9949L68.3502 14.9949L70.4581 21.67ZM66.0781 15.39C65.1227 15.39 64.9584 15.1593 64.8219 15.0043L54.3142 24.2557C57.4178 27.7807 61.5935 29.39 66.0781 29.39V15.39ZM64.8219 15.0043C64.7537 14.9268 64.1381 14.1475 64.1381 11.47H50.1381C50.1381 15.9925 51.1425 20.6532 54.3142 24.2557L64.8219 15.0043ZM64.1381 11.47C64.1381 8.58421 64.7322 7.70788 64.7636 7.66758L53.7126 -0.927585C50.944 2.63211 50.1381 7.15579 50.1381 11.47H64.1381ZM64.757 7.67598C64.7193 7.72437 64.6679 7.77474 64.615 7.81369C64.5643 7.851 64.5506 7.84956 64.6056 7.8277C64.7318 7.77754 65.1744 7.64 66.1081 7.64V-6.36C61.6401 -6.36 56.9123 -5.02854 53.7192 -0.93598L64.757 7.67598ZM66.1081 7.64C66.8133 7.64 67.4238 7.73352 67.967 7.8938L71.9292 -5.5338C70.0324 -6.09352 68.0828 -6.36 66.1081 -6.36V7.64ZM67.9964 7.90242C68.5202 8.05449 68.8712 8.17082 69.0845 8.24957C69.1885 8.28792 69.2269 8.30533 69.2155 8.30024C69.2135 8.29937 69.0942 8.24713 68.907 8.13648L76.0292 -3.91649C74.7377 -4.67966 73.1037 -5.19288 71.8998 -5.54243L67.9964 7.90242ZM69.1161 8.25527C69.235 8.3201 69.3049 8.36226 69.3354 8.38146C69.3496 8.3904 69.3492 8.39054 69.3365 8.38179C69.3241 8.37324 69.2941 8.35218 69.2501 8.31837L77.7861 -2.77837C77.128 -3.28453 76.432 -3.70147 75.8201 -4.03527L69.1161 8.25527ZM66.5181 2.77C66.5181 3.47956 66.4279 4.41925 66.1809 5.62339L79.8953 8.43661C80.2883 6.52075 80.5181 4.62044 80.5181 2.77H66.5181ZM70.1047 0.674285C70.4102 0.533269 70.8864 0.389999 71.4781 0.389999V14.39C73.1098 14.39 74.626 14.0067 75.9715 13.3857L70.1047 0.674285ZM71.4781 0.389999C71.147 0.389999 70.9888 0.375887 70.9611 0.372813L69.4151 14.2872C70.1074 14.3641 70.8092 14.39 71.4781 14.39V0.389999ZM77.0496 5.9445L76.4196 2.8245L62.6966 5.5955L63.3266 8.7155L77.0496 5.9445ZM71.3999 -2.54335C69.9708 -2.93311 68.4911 -3.15 66.9781 -3.15V10.85C67.1451 10.85 67.3854 10.8731 67.7163 10.9633L71.3999 -2.54335ZM66.9781 -3.15C64.9346 -3.15 62.7978 -2.7483 60.7263 -2.18335L64.4099 11.3233C65.8584 10.9283 66.6616 10.85 66.9781 10.85V-3.15ZM56.3071 1.4395C54.8242 4.40524 54.2481 7.67889 54.2481 10.99H68.2481C68.2481 9.26111 68.5519 8.25475 68.8291 7.70049L56.3071 1.4395ZM54.2481 10.99C54.2481 14.2057 54.6794 17.7674 56.4262 20.7434C58.5122 24.2973 62.0432 26.27 66.1081 26.27V12.27C66.3148 12.27 66.8347 12.3226 67.4386 12.6656C68.0467 13.0109 68.3748 13.4432 68.5 13.6566C68.599 13.8253 68.5179 13.7607 68.4216 13.2684C68.3275 12.7874 68.2481 12.0484 68.2481 10.99H54.2481ZM66.1081 26.27C68.4035 26.27 71.0229 25.9037 73.4099 24.561L66.5463 12.359C66.7984 12.2171 66.9344 12.1997 66.8565 12.216C66.7759 12.2328 66.5412 12.27 66.1081 12.27V26.27ZM76.9729 18.729C77.0157 17.6158 77.0567 15.9579 77.0969 13.7896L63.0993 13.5304C63.0594 15.6821 63.0204 17.2242 62.9833 18.191L76.9729 18.729ZM72.1679 6.973L69.6479 6.193L65.5083 19.567L68.0283 20.347L72.1679 6.973ZM74.5187 13.7902L74.7587 11.9602L60.8775 10.1398L60.6375 11.9698L74.5187 13.7902ZM67.8181 18.05H75.0781V4.05H67.8181V18.05ZM68.9328 14.402C68.8413 14.2343 68.7742 14.0896 68.7265 13.9778C68.6786 13.8654 68.6448 13.7734 68.6224 13.7076C68.5792 13.5812 68.5648 13.5136 68.568 13.5276C68.5704 13.538 68.5825 13.5941 68.5999 13.7058C68.617 13.8158 68.6366 13.9632 68.6565 14.1528L82.5796 12.6872C82.4559 11.5116 82.1916 9.4731 81.2234 7.69803L68.9328 14.402ZM74.2065 6.5638C73.8487 6.63747 73.4135 6.70044 72.8912 6.74062L73.965 20.6994C75.0026 20.6196 76.0275 20.4825 77.0297 20.2762L74.2065 6.5638ZM66.4356 14.0452C66.5524 16.555 66.6081 18.6609 66.6081 20.38H80.6081C80.6081 18.3791 80.5438 16.045 80.4205 13.3948L66.4356 14.0452ZM69.7719 14.5248C69.9175 14.4294 69.9971 14.3922 69.9699 14.4057C69.9491 14.416 69.875 14.4514 69.7328 14.5097C69.4418 14.6288 68.9932 14.7918 68.3502 14.9949L72.566 28.3451C74.1139 27.8563 75.9851 27.1912 77.4443 26.2352L69.7719 14.5248ZM68.3502 14.9949C67.4192 15.2889 66.6717 15.39 66.0781 15.39V29.39C68.2845 29.39 70.4569 29.0111 72.566 28.3451L68.3502 14.9949ZM82.3163 4.54L79.6752 -1.94265L77.1717 -0.922706L76.0036 1.51516L82.3163 4.54ZM82.0763 17.11L75.9243 20.4496L75.9344 20.4683L75.9447 20.4868L82.0763 17.11ZM93.1463 3.28L87.6073 7.56013L87.6191 7.57547L87.6311 7.59074L93.1463 3.28ZM94.3163 17.08L100.897 19.4656L100.897 19.4656L94.3163 17.08ZM91.3763 20.92L95.3737 26.6663L95.3737 26.6663L91.3763 20.92ZM78.9863 19.63L73.5261 24.0102L73.5406 24.0283L73.5553 24.0464L78.9863 19.63ZM86.0963 26.18C89.8676 26.18 93.4422 24.5513 95.6978 21.0865C97.6146 18.1419 98.0763 14.616 98.0763 11.53H84.0763C84.0763 12.4471 83.9997 13.0448 83.9242 13.3925C83.8479 13.7445 83.8043 13.6951 83.9648 13.4485C84.156 13.1549 84.5259 12.7573 85.0846 12.4712C85.6181 12.198 86.023 12.18 86.0963 12.18V26.18ZM98.0763 11.53C98.0763 8.444 97.6146 4.91807 95.6978 1.97354C93.4422 -1.49131 89.8676 -3.12 86.0963 -3.12V10.88C86.023 10.88 85.6181 10.862 85.0846 10.5888C84.5259 10.3027 84.156 9.90515 83.9648 9.61146C83.8043 9.36491 83.8479 9.31549 83.9242 9.66753C83.9997 10.0152 84.0763 10.6129 84.0763 11.53H98.0763ZM86.0963 -3.12C83.9567 -3.12 81.7655 -2.79426 79.6752 -1.94265L84.9574 11.0226C85.0271 10.9943 85.3559 10.88 86.0963 10.88V-3.12ZM76.0036 1.51516C74.5521 4.54434 73.9363 7.84281 73.9363 11.23H87.9363C87.9363 9.53719 88.2405 8.37565 88.629 7.56484L76.0036 1.51516ZM73.9363 11.23C73.9363 14.3043 74.3748 17.5954 75.9243 20.4496L88.2283 13.7704C88.2631 13.8345 88.1801 13.7053 88.0933 13.2577C88.0072 12.8132 87.9363 12.1532 87.9363 11.23H73.9363ZM75.9447 20.4868C78.2246 24.6268 82.2863 26.18 86.0963 26.18V12.18C85.954 12.18 86.3007 12.1532 86.8559 12.4391C87.4806 12.7608 87.9489 13.2628 88.2079 13.7332L75.9447 20.4868ZM86.0963 7.64C87.1892 7.64 87.7312 7.78887 87.909 7.85545C87.9846 7.88377 87.9613 7.8847 87.8822 7.8284C87.7985 7.76886 87.6981 7.67759 87.6073 7.56013L98.6853 -1.00013C95.439 -5.20116 90.4834 -6.36 86.0963 -6.36V7.64ZM87.6311 7.59074C87.5856 7.53259 87.7347 7.69416 87.8928 8.31512C88.0529 8.94375 88.1863 9.90553 88.1863 11.29H102.186C102.186 7.03656 101.424 2.50335 98.6615 -1.03074L87.6311 7.59074ZM88.1863 11.29C88.1863 12.9874 87.9638 14.0641 87.7353 14.6944L100.897 19.4656C101.829 16.8959 102.186 14.1126 102.186 11.29H88.1863ZM87.7353 14.6944C87.6419 14.9521 87.5554 15.0509 87.3788 15.1737L95.3737 26.6663C97.9572 24.8691 99.8307 22.4079 100.897 19.4656L87.7353 14.6944ZM87.3788 15.1737C87.4562 15.1199 87.1973 15.36 86.0963 15.36V29.36C89.2752 29.36 92.5364 28.6401 95.3737 26.6663L87.3788 15.1737ZM86.0963 15.36C85.0917 15.36 84.5755 15.2166 84.3829 15.1427C84.2434 15.0891 84.3223 15.0968 84.4173 15.2136L73.5553 24.0464C76.8279 28.0708 81.5939 29.36 86.0963 29.36V15.36ZM84.4465 15.2498C84.3692 15.1535 83.7963 14.3191 83.7963 11.68H69.7963C69.7963 16.0009 70.6834 20.4665 73.5261 24.0102L84.4465 15.2498ZM83.7963 11.68C83.7963 8.81402 84.425 7.96908 84.4749 7.90985C84.483 7.90028 84.4871 7.8965 84.4874 7.89618C84.4878 7.8959 84.4881 7.89551 84.4901 7.8941C84.4908 7.89358 84.521 7.87146 84.6031 7.83895C84.775 7.77092 85.2238 7.64 86.0963 7.64V-6.36C81.5724 -6.36 77.0115 -4.96057 73.7677 -1.10985C70.7176 2.51092 69.7963 7.18598 69.7963 11.68H83.7963Z" fill="#1DA1F2"/>
</g>
<defs>
<filter id="filter0_i_0_1" x="0.279785" y="0.640015" width="94.9067" height="25.75" filterUnits="userSpaceOnUse" color-interpolation-filters="sRGB">
<feFlood flood-opacity="0" result="BackgroundImageFix"/>
<feBlend mode="normal" in="SourceGraphic" in2="BackgroundImageFix" result="shape"/>
<feColorMatrix in="SourceAlpha" type="matrix" values="0 0 0 0 0 0 0 0 0 0 0 0 0 0 0 0 0 0 127 0" result="hardAlpha"/>
<feOffset dy="4"/>
<feGaussianBlur stdDeviation="2"/>
<feComposite in2="hardAlpha" operator="arithmetic" k2="-1" k3="1"/>
<feColorMatrix type="matrix" values="0 0 0 0 0 0 0 0 0 0 0 0 0 0 0 0 0 0 0.25 0"/>
<feBlend mode="normal" in2="shape" result="effect1_innerShadow_0_1"/>
</filter>
</defs>
</svg>
