<svg width="104" height="31" viewBox="0 0 104 31" fill="none" xmlns="http://www.w3.org/2000/svg">
<g filter="url(#filter0_d_251_1522)">
<path d="M19.9 20.23L24.2416 25.7209L24.2889 25.6836L24.3355 25.6454L19.9 20.23ZM17.11 21.64L18.7436 28.4467L18.8077 28.4313L18.8714 28.4148L17.11 21.64ZM5.41 22L-1.49812 23.1304L-0.537645 29H5.41V22ZM5.14 20.35L2.72006 13.7816L-2.7011 15.7789L-1.76812 21.4804L5.14 20.35ZM7.66 19.48L8.52824 26.4259L14.66 25.6595V19.48H7.66ZM7.39 3.61L14.389 3.49024L14.2971 -1.87866L9.08775 -3.181L7.39 3.61ZM4.9 2.83L-2.05386 2.02763L-2.67562 7.41619L2.38714 9.36342L4.9 2.83ZM5.14 0.999999V-6H-0.475201L-1.69331 -0.518514L5.14 0.999999ZM17.77 1.6L15.4881 8.21761L15.5054 8.22358L15.5227 8.22946L17.77 1.6ZM20.89 3.73L26.2048 -0.825542L26.1721 -0.863684L26.1389 -0.901353L20.89 3.73ZM17.98 17.44L12.2209 13.461L12.1962 13.4967L12.1719 13.5328L17.98 17.44ZM17.86 5.86L12.0646 9.78594L12.0794 9.80788L12.0945 9.82971L17.86 5.86ZM11.47 4V-3H4.55259L4.47049 3.91692L11.47 4ZM11.32 19.09L4.32013 19.0478L4.27771 26.09H11.32V19.09ZM16.05 11.05C16.05 12.736 15.8434 13.7846 15.6414 14.3731C15.4569 14.9108 15.3295 14.9252 15.4645 14.8146L24.3355 25.6454C28.8443 21.9524 30.05 16.2609 30.05 11.05H16.05ZM15.5584 14.7391C15.4127 14.8542 15.3521 14.8643 15.3486 14.8652L18.8714 28.4148C20.8679 27.8957 22.6673 26.9658 24.2416 25.7209L15.5584 14.7391ZM15.4764 14.8333C15.2259 14.8934 14.5258 15 13.18 15V29C15.0742 29 16.9941 28.8666 18.7436 28.4467L15.4764 14.8333ZM13.18 15H5.41V29H13.18V15ZM12.3181 20.8696L12.0481 19.2196L-1.76812 21.4804L-1.49812 23.1304L12.3181 20.8696ZM7.55994 26.9184C8.30499 26.6439 8.84231 26.4508 9.19436 26.3293C9.37518 26.2668 9.46306 26.2386 9.48519 26.2317C9.49835 26.2276 9.44956 26.2432 9.36219 26.2663C9.31744 26.2782 9.23311 26.2999 9.12207 26.3243C9.02937 26.3446 8.81273 26.3904 8.52824 26.4259L6.79176 12.5341C6.27513 12.5986 5.86157 12.7108 5.77406 12.734C5.60419 12.779 5.45165 12.8249 5.33981 12.8595C5.11195 12.9302 4.86482 13.0132 4.62564 13.0957C4.13769 13.2642 3.49501 13.4961 2.72006 13.7816L7.55994 26.9184ZM14.66 19.48C14.66 19.3402 14.5676 13.9322 14.389 3.49024L0.391025 3.72975C0.57236 14.3278 0.66 19.4998 0.66 19.48H14.66ZM9.08775 -3.181C8.46125 -3.33762 7.90524 -3.51404 7.41286 -3.70342L2.38714 9.36342C3.45476 9.77404 4.55875 10.1176 5.69225 10.401L9.08775 -3.181ZM11.8539 3.63237C11.9121 3.12723 11.9574 2.75558 11.9906 2.50274C12.0073 2.37517 12.018 2.30085 12.0231 2.26686C12.0256 2.25033 12.0244 2.25952 12.0196 2.28704C12.0166 2.30429 12.0013 2.39275 11.9733 2.51851L-1.69331 -0.518514C-1.83377 0.11354 -1.95869 1.20278 -2.05386 2.02763L11.8539 3.63237ZM5.14 8H13.09V-6H5.14V8ZM13.09 8C14.6797 8 15.3672 8.17592 15.4881 8.21761L20.0519 -5.01761C17.8528 -5.77592 15.4203 -6 13.09 -6V8ZM15.5227 8.22946C15.5165 8.22734 15.5075 8.22376 15.4983 8.21912C15.489 8.2145 15.4853 8.21178 15.4882 8.21374C15.4914 8.2159 15.5451 8.25255 15.6411 8.36135L26.1389 -0.901353C24.5064 -2.75153 22.4597 -4.20151 20.0173 -5.02946L15.5227 8.22946ZM15.5752 8.28554C15.5761 8.28664 15.5816 8.29308 15.5911 8.30714C15.6006 8.32131 15.6159 8.34564 15.6354 8.3828C15.6742 8.45682 15.7338 8.5895 15.7962 8.80112C15.9249 9.23719 16.05 9.95623 16.05 11.05H30.05C30.05 6.91002 29.1285 2.5855 26.2048 -0.825542L15.5752 8.28554ZM13.45 26.09C16.3902 26.09 21.0323 25.4437 23.7881 21.3472L12.1719 13.5328C12.7911 12.6123 13.5622 12.2221 13.8968 12.1002C14.158 12.0051 14.0873 12.09 13.45 12.09V26.09ZM23.7391 21.419C25.7911 18.449 26.12 14.6655 26.12 11.74H12.12C12.12 12.7942 12.0431 13.4566 11.9709 13.8172C11.9368 13.9878 11.9155 14.0304 11.9353 13.9785C11.9546 13.9276 12.034 13.7315 12.2209 13.461L23.7391 21.419ZM26.12 11.74C26.12 8.63299 25.6971 4.89904 23.6255 1.89029L12.0945 9.82971C11.8456 9.46823 11.8788 9.33077 11.9604 9.7117C12.0386 10.0765 12.12 10.7252 12.12 11.74H26.12ZM23.6554 1.93406C21.1219 -1.80588 17.1449 -3 13.66 -3V11C13.9267 11 13.7509 11.045 13.3455 10.8654C12.8744 10.6568 12.3973 10.2772 12.0646 9.78594L23.6554 1.93406ZM13.66 -3H11.47V11H13.66V-3ZM4.47049 3.91692C4.39046 10.6597 4.34026 15.7065 4.32013 19.0478L18.3199 19.1322C18.3397 15.8335 18.3895 10.8203 18.4695 4.08308L4.47049 3.91692ZM11.32 26.09H13.45V12.09H11.32V26.09ZM30.1298 4.54L27.4887 -1.94265L24.9852 -0.922706L23.8171 1.51516L30.1298 4.54ZM29.8898 17.11L23.7378 20.4496L23.7479 20.4683L23.7581 20.4868L29.8898 17.11ZM40.9598 3.28L35.4208 7.56013L35.4326 7.57547L35.4446 7.59074L40.9598 3.28ZM42.1298 17.08L48.7107 19.4656L48.7107 19.4656L42.1298 17.08ZM39.1898 20.92L43.1872 26.6663L43.1872 26.6663L39.1898 20.92ZM26.7998 19.63L21.3395 24.0102L21.3541 24.0283L21.3688 24.0464L26.7998 19.63ZM33.9098 26.18C37.6811 26.18 41.2557 24.5513 43.5112 21.0865C45.4281 18.1419 45.8898 14.616 45.8898 11.53H31.8898C31.8898 12.4471 31.8131 13.0448 31.7377 13.3925C31.6613 13.7445 31.6178 13.6951 31.7783 13.4485C31.9695 13.1549 32.3393 12.7573 32.8981 12.4712C33.4316 12.198 33.8365 12.18 33.9098 12.18V26.18ZM45.8898 11.53C45.8898 8.444 45.4281 4.91807 43.5112 1.97354C41.2557 -1.49131 37.6811 -3.12 33.9098 -3.12V10.88C33.8365 10.88 33.4316 10.862 32.8981 10.5888C32.3393 10.3027 31.9695 9.90515 31.7783 9.61146C31.6178 9.36491 31.6613 9.31549 31.7377 9.66753C31.8131 10.0152 31.8898 10.6129 31.8898 11.53H45.8898ZM33.9098 -3.12C31.7702 -3.12 29.579 -2.79426 27.4887 -1.94265L32.7708 11.0226C32.8405 10.9943 33.1693 10.88 33.9098 10.88V-3.12ZM23.8171 1.51516C22.3656 4.54434 21.7498 7.84281 21.7498 11.23H35.7498C35.7498 9.53719 36.054 8.37565 36.4425 7.56484L23.8171 1.51516ZM21.7498 11.23C21.7498 14.3043 22.1883 17.5954 23.7378 20.4496L36.0417 13.7704C36.0765 13.8345 35.9936 13.7053 35.9068 13.2577C35.8206 12.8132 35.7498 12.1532 35.7498 11.23H21.7498ZM23.7581 20.4868C26.0381 24.6268 30.0998 26.18 33.9098 26.18V12.18C33.7675 12.18 34.1141 12.1532 34.6693 12.4391C35.2941 12.7608 35.7624 13.2628 36.0214 13.7332L23.7581 20.4868ZM33.9098 7.64C35.0026 7.64 35.5447 7.78887 35.7225 7.85545C35.7981 7.88377 35.7748 7.8847 35.6957 7.8284C35.612 7.76886 35.5115 7.67759 35.4208 7.56013L46.4988 -1.00013C43.2525 -5.20116 38.2968 -6.36 33.9098 -6.36V7.64ZM35.4446 7.59074C35.3991 7.53259 35.5482 7.69416 35.7063 8.31512C35.8664 8.94375 35.9998 9.90553 35.9998 11.29H49.9998C49.9998 7.03656 49.2373 2.50335 46.475 -1.03074L35.4446 7.59074ZM35.9998 11.29C35.9998 12.9874 35.7773 14.0641 35.5488 14.6944L48.7107 19.4656C49.6422 16.8959 49.9998 14.1126 49.9998 11.29H35.9998ZM35.5488 14.6944C35.4554 14.9521 35.3688 15.0509 35.1923 15.1737L43.1872 26.6663C45.7707 24.8691 47.6441 22.4079 48.7107 19.4656L35.5488 14.6944ZM35.1923 15.1737C35.2697 15.1199 35.0108 15.36 33.9098 15.36V29.36C37.0887 29.36 40.3499 28.6401 43.1872 26.6663L35.1923 15.1737ZM33.9098 15.36C32.9051 15.36 32.389 15.2166 32.1964 15.1427C32.0569 15.0891 32.1358 15.0968 32.2307 15.2136L21.3688 24.0464C24.6414 28.0708 29.4074 29.36 33.9098 29.36V15.36ZM32.26 15.2498C32.1827 15.1535 31.6098 14.3191 31.6098 11.68H17.6098C17.6098 16.0009 18.4968 20.4665 21.3395 24.0102L32.26 15.2498ZM31.6098 11.68C31.6098 8.81402 32.2385 7.96908 32.2884 7.90985C32.2964 7.90028 32.3006 7.8965 32.3009 7.89618C32.3012 7.8959 32.3016 7.89551 32.3036 7.8941C32.3043 7.89358 32.3344 7.87146 32.4166 7.83895C32.5885 7.77092 33.0373 7.64 33.9098 7.64V-6.36C29.3859 -6.36 24.825 -4.96057 21.5811 -1.10985C18.531 2.51092 17.6098 7.18598 17.6098 11.68H31.6098ZM57.7436 7.78L57.5179 14.7764L57.6307 14.78H57.7436V7.78ZM56.8136 7.75L50.0095 9.39433L51.2613 14.5745L56.5879 14.7464L56.8136 7.75ZM55.9436 4.15L62.7477 2.50567L61.667 -1.9665L57.1329 -2.74822L55.9436 4.15ZM49.4936 4.54L47.3364 -2.1193L44.6627 -1.2532L43.3303 1.2213L49.4936 4.54ZM48.5036 7.54L55.372 8.89115L55.372 8.89115L48.5036 7.54ZM56.1536 18.67L59.2841 24.931L62.4514 23.3473L63.0521 19.8575L56.1536 18.67ZM56.7836 15.01V8.01H50.8856L49.885 13.8225L56.7836 15.01ZM59.6636 15.22L66.5894 14.2034L65.8818 9.38327L61.1161 8.37236L59.6636 15.22ZM60.1436 20.53L64.3436 26.13L67.1436 24.03V20.53H60.1436ZM57.2336 21.73L55.2137 15.0277L55.2009 15.0316L55.1881 15.0355L57.2336 21.73ZM46.1936 3.37L40.7334 -1.01018L40.7186 -0.991828L40.704 -0.973376L46.1936 3.37ZM57.3536 1.33L54.884 7.87988L54.9032 7.88712L54.9224 7.89424L57.3536 1.33ZM60.1136 2.65H67.1136V-1.20819L63.8515 -3.26843L60.1136 2.65ZM59.6636 7.57L61.3613 14.361L65.8633 13.2355L66.5797 8.65064L59.6636 7.57ZM57.9693 0.783638L57.0393 0.753638L56.5879 14.7464L57.5179 14.7764L57.9693 0.783638ZM63.6177 6.10567L62.7477 2.50567L49.1395 5.79433L50.0095 9.39433L63.6177 6.10567ZM57.1329 -2.74822C55.894 -2.96183 54.5383 -3.15 53.3336 -3.15V10.85C53.2588 10.85 53.3331 10.846 53.6218 10.8792C53.8907 10.9101 54.2629 10.9635 54.7542 11.0482L57.1329 -2.74822ZM53.3336 -3.15C51.2746 -3.15 49.2503 -2.73932 47.3364 -2.1193L51.6508 11.1993C52.5769 10.8993 53.1125 10.85 53.3336 10.85V-3.15ZM43.3303 1.2213C42.4743 2.8111 41.9604 4.53581 41.6352 6.18885L55.372 8.89115C55.4456 8.51693 55.5191 8.24869 55.5785 8.06864C55.6385 7.88682 55.673 7.82878 55.6569 7.8587L43.3303 1.2213ZM41.6352 6.18885C41.3205 7.78865 41.1436 9.39443 41.1436 10.99H55.1436C55.1436 10.4256 55.2067 9.73135 55.372 8.89115L41.6352 6.18885ZM41.1436 10.99C41.1436 14.1927 41.5645 17.7328 43.2706 20.6943C45.3126 24.2389 48.8152 26.27 52.9136 26.27V12.27C53.1574 12.27 53.7084 12.3325 54.3325 12.6936C54.956 13.0544 55.2826 13.4992 55.4016 13.7057C55.4956 13.8689 55.4127 13.7952 55.3161 13.2924C55.2219 12.802 55.1436 12.0545 55.1436 10.99H41.1436ZM52.9136 26.27C54.8452 26.27 57.1375 26.0043 59.2841 24.931L53.0231 12.409C53.1772 12.332 53.2985 12.2876 53.3728 12.2639C53.4468 12.2403 53.4821 12.2346 53.469 12.237C53.456 12.2394 53.4048 12.2481 53.3092 12.2559C53.214 12.2637 53.0834 12.27 52.9136 12.27V26.27ZM63.0521 19.8575L63.6821 16.1975L49.885 13.8225L49.255 17.4825L63.0521 19.8575ZM56.7836 22.01C57.2923 22.01 57.6713 22.0244 57.9395 22.044C58.2241 22.0647 58.2923 22.0849 58.2111 22.0676L61.1161 8.37236C59.7314 8.07864 58.1891 8.01 56.7836 8.01V22.01ZM52.7378 16.2366C53.0347 18.2589 53.1436 19.6528 53.1436 20.53H67.1436C67.1436 18.6872 66.9325 16.5411 66.5894 14.2034L52.7378 16.2366ZM55.9436 14.93C56.2096 14.7305 56.4018 14.6286 56.4421 14.6075C56.4942 14.5802 56.4842 14.5888 56.3875 14.6286C56.1862 14.7117 55.8128 14.8472 55.2137 15.0277L59.2534 28.4323C60.6495 28.0115 62.7507 27.3247 64.3436 26.13L55.9436 14.93ZM55.1881 15.0355C54.3611 15.2882 53.63 15.39 52.9736 15.39V29.39C55.1172 29.39 57.2261 29.0518 59.2791 28.4245L55.1881 15.0355ZM52.9736 15.39C52.1912 15.39 51.8271 15.2682 51.7269 15.227C51.6793 15.2074 51.6753 15.2 51.6931 15.2131C51.7115 15.2268 51.7179 15.2363 51.7086 15.2248C51.6536 15.1568 51.0336 14.2671 51.0336 11.35H37.0336C37.0336 15.7929 37.9036 20.4232 40.8286 24.0352C43.9822 27.9297 48.4779 29.39 52.9736 29.39V15.39ZM51.0336 11.35C51.0336 8.66186 51.6087 7.80748 51.6831 7.71337L40.704 -0.973376C37.8985 2.57252 37.0336 7.03814 37.0336 11.35H51.0336ZM51.6538 7.75018C51.5668 7.8587 51.4825 7.87922 51.5847 7.83912C51.7399 7.77825 52.2073 7.64 53.1536 7.64V-6.36C48.6695 -6.36 43.9615 -5.03428 40.7334 -1.01018L51.6538 7.75018ZM53.1536 7.64C54.0635 7.64 54.6008 7.77312 54.884 7.87988L59.8232 -5.21988C57.6664 -6.03312 55.4037 -6.36 53.1536 -6.36V7.64ZM54.9224 7.89424C55.6661 8.16968 56.1237 8.40927 56.3756 8.56842L63.8515 -3.26843C62.5835 -4.06927 61.2011 -4.70969 59.7848 -5.23424L54.9224 7.89424ZM53.1136 2.65C53.1136 3.53114 53.0132 4.78885 52.7475 6.48936L66.5797 8.65064C66.914 6.51115 67.1136 4.48886 67.1136 2.65H53.1136ZM57.9658 0.779001C58.0267 0.763788 58.0423 0.764641 58.0025 0.768997C57.9628 0.773343 57.8786 0.779999 57.7436 0.779999V14.78C58.9015 14.78 60.1293 14.669 61.3613 14.361L57.9658 0.779001ZM64.1882 19.63L58.9343 24.2557L64.1882 19.63ZM63.8582 3.37L58.3393 -0.935985L58.3327 -0.927585L63.8582 3.37ZM74.5682 1.18L72.5871 7.8938L72.6018 7.89815L72.6165 7.90242L74.5682 1.18ZM77.0882 2.11L73.5271 8.13648L73.6306 8.19767L73.7362 8.25527L77.0882 2.11ZM78.1382 2.77H85.1382V-0.676815L82.4062 -2.77837L78.1382 2.77ZM77.6582 7.03L80.5916 13.3857L83.8044 11.9029L84.5154 8.43661L77.6582 7.03ZM74.8082 7.33L67.9467 8.7155L68.9578 13.723L74.0352 14.2872L74.8082 7.33ZM74.1782 4.21L81.0397 2.8245L80.1852 -1.40739L76.02 -2.54335L74.1782 4.21ZM67.1882 4.57L65.3464 -2.18335L62.3269 -1.35985L60.9272 1.4395L67.1882 4.57ZM74.5982 18.46L78.03 24.561L81.4426 22.6415L81.593 18.729L74.5982 18.46ZM74.7182 13.66L81.717 13.7896L81.8144 8.5288L76.788 6.973L74.7182 13.66ZM72.1982 12.88L65.2576 11.9698L64.4902 17.8218L70.1284 19.567L72.1982 12.88ZM72.4382 11.05V4.05H66.2963L65.4976 10.1398L72.4382 11.05ZM79.6982 11.05L85.8435 7.69803L83.8536 4.05H79.6982V11.05ZM80.2382 13.42L81.6498 20.2762L87.8639 18.9968L87.1997 12.6872L80.2382 13.42ZM78.0482 13.72L77.5113 6.74062L70.7402 7.26147L71.0558 14.0452L78.0482 13.72ZM78.2282 20.38L82.0644 26.2352L85.2282 24.1624V20.38H78.2282ZM75.0782 21.67L72.9703 14.9949L72.9703 14.9949L75.0782 21.67ZM70.6982 15.39C69.7428 15.39 69.5785 15.1593 69.4421 15.0043L58.9343 24.2557C62.0379 27.7807 66.2136 29.39 70.6982 29.39V15.39ZM69.4421 15.0043C69.3738 14.9268 68.7582 14.1475 68.7582 11.47H54.7582C54.7582 15.9925 55.7626 20.6532 58.9343 24.2557L69.4421 15.0043ZM68.7582 11.47C68.7582 8.58421 69.3523 7.70788 69.3837 7.66758L58.3327 -0.927585C55.5641 2.63211 54.7582 7.15579 54.7582 11.47H68.7582ZM69.3771 7.67598C69.3394 7.72437 69.288 7.77474 69.2351 7.81369C69.1844 7.851 69.1707 7.84956 69.2257 7.8277C69.352 7.77754 69.7945 7.64 70.7282 7.64V-6.36C66.2603 -6.36 61.5324 -5.02854 58.3393 -0.93598L69.3771 7.67598ZM70.7282 7.64C71.4335 7.64 72.0439 7.73352 72.5871 7.8938L76.5493 -5.5338C74.6525 -6.09352 72.703 -6.36 70.7282 -6.36V7.64ZM72.6165 7.90242C73.1403 8.05449 73.4913 8.17082 73.7046 8.24957C73.8086 8.28792 73.847 8.30533 73.8356 8.30024C73.8336 8.29937 73.7143 8.24713 73.5271 8.13648L80.6493 -3.91649C79.3578 -4.67966 77.7239 -5.19288 76.5199 -5.54243L72.6165 7.90242ZM73.7362 8.25527C73.8551 8.3201 73.925 8.36226 73.9555 8.38146C73.9697 8.3904 73.9693 8.39054 73.9566 8.38179C73.9442 8.37324 73.9142 8.35218 73.8702 8.31837L82.4062 -2.77837C81.7482 -3.28453 81.0521 -3.70147 80.4402 -4.03527L73.7362 8.25527ZM71.1382 2.77C71.1382 3.47956 71.048 4.41925 70.801 5.62339L84.5154 8.43661C84.9084 6.52075 85.1382 4.62044 85.1382 2.77H71.1382ZM74.7248 0.674285C75.0303 0.533269 75.5065 0.389999 76.0982 0.389999V14.39C77.7299 14.39 79.2461 14.0067 80.5916 13.3857L74.7248 0.674285ZM76.0982 0.389999C75.7671 0.389999 75.6089 0.375887 75.5812 0.372813L74.0352 14.2872C74.7275 14.3641 75.4293 14.39 76.0982 14.39V0.389999ZM81.6697 5.9445L81.0397 2.8245L67.3167 5.5955L67.9467 8.7155L81.6697 5.9445ZM76.02 -2.54335C74.5909 -2.93311 73.1112 -3.15 71.5982 -3.15V10.85C71.7652 10.85 72.0055 10.8731 72.3364 10.9633L76.02 -2.54335ZM71.5982 -3.15C69.5547 -3.15 67.4179 -2.7483 65.3464 -2.18335L69.03 11.3233C70.4785 10.9283 71.2817 10.85 71.5982 10.85V-3.15ZM60.9272 1.4395C59.4443 4.40524 58.8682 7.67889 58.8682 10.99H72.8682C72.8682 9.26111 73.1721 8.25475 73.4492 7.70049L60.9272 1.4395ZM58.8682 10.99C58.8682 14.2057 59.2995 17.7674 61.0463 20.7434C63.1323 24.2973 66.6633 26.27 70.7282 26.27V12.27C70.9349 12.27 71.4548 12.3226 72.0587 12.6656C72.6668 13.0109 72.9949 13.4432 73.1201 13.6566C73.2191 13.8253 73.138 13.7607 73.0417 13.2684C72.9476 12.7874 72.8682 12.0484 72.8682 10.99H58.8682ZM70.7282 26.27C73.0236 26.27 75.643 25.9037 78.03 24.561L71.1664 12.359C71.4185 12.2171 71.5546 12.1997 71.4767 12.216C71.396 12.2328 71.1614 12.27 70.7282 12.27V26.27ZM81.593 18.729C81.6359 17.6158 81.6769 15.9579 81.717 13.7896L67.7194 13.5304C67.6796 15.6821 67.6406 17.2242 67.6034 18.191L81.593 18.729ZM76.788 6.973L74.268 6.193L70.1284 19.567L72.6484 20.347L76.788 6.973ZM79.1388 13.7902L79.3788 11.9602L65.4976 10.1398L65.2576 11.9698L79.1388 13.7902ZM72.4382 18.05H79.6982V4.05H72.4382V18.05ZM73.5529 14.402C73.4615 14.2343 73.3943 14.0896 73.3467 13.9778C73.2987 13.8654 73.2649 13.7734 73.2425 13.7076C73.1993 13.5812 73.1849 13.5136 73.1881 13.5276C73.1905 13.538 73.2027 13.5941 73.22 13.7058C73.2371 13.8158 73.2567 13.9632 73.2767 14.1528L87.1997 12.6872C87.076 11.5116 86.8117 9.4731 85.8435 7.69803L73.5529 14.402ZM78.8266 6.5638C78.4688 6.63747 78.0337 6.70044 77.5113 6.74062L78.5851 20.6994C79.6227 20.6196 80.6476 20.4825 81.6498 20.2762L78.8266 6.5638ZM71.0558 14.0452C71.1725 16.555 71.2282 18.6609 71.2282 20.38H85.2282C85.2282 18.3791 85.1639 16.045 85.0406 13.3948L71.0558 14.0452ZM74.392 14.5248C74.5376 14.4294 74.6172 14.3922 74.59 14.4057C74.5692 14.416 74.4951 14.4514 74.3529 14.5097C74.0619 14.6288 73.6134 14.7918 72.9703 14.9949L77.1861 28.3451C78.734 27.8563 80.6053 27.1912 82.0644 26.2352L74.392 14.5248ZM72.9703 14.9949C72.0394 15.2889 71.2918 15.39 70.6982 15.39V29.39C72.9046 29.39 75.0771 29.0111 77.1861 28.3451L72.9703 14.9949ZM86.9364 4.54L84.2953 -1.94265L81.7918 -0.922706L80.6237 1.51516L86.9364 4.54ZM86.6964 17.11L80.5444 20.4496L80.5545 20.4683L80.5648 20.4868L86.6964 17.11ZM97.7664 3.28L92.2274 7.56013L92.2393 7.57547L92.2512 7.59074L97.7664 3.28ZM98.9364 17.08L105.517 19.4656L105.517 19.4656L98.9364 17.08ZM95.9964 20.92L99.9939 26.6663L99.9939 26.6663L95.9964 20.92ZM83.6064 19.63L78.1462 24.0102L78.1607 24.0283L78.1754 24.0464L83.6064 19.63ZM90.7164 26.18C94.4877 26.18 98.0623 24.5513 100.318 21.0865C102.235 18.1419 102.696 14.616 102.696 11.53H88.6964C88.6964 12.4471 88.6198 13.0448 88.5444 13.3925C88.468 13.7445 88.4244 13.6951 88.5849 13.4485C88.7761 13.1549 89.146 12.7573 89.7048 12.4712C90.2382 12.198 90.6432 12.18 90.7164 12.18V26.18ZM102.696 11.53C102.696 8.444 102.235 4.91807 100.318 1.97354C98.0623 -1.49131 94.4877 -3.12 90.7164 -3.12V10.88C90.6432 10.88 90.2382 10.862 89.7048 10.5888C89.146 10.3027 88.7761 9.90515 88.5849 9.61146C88.4244 9.36491 88.468 9.31549 88.5444 9.66753C88.6198 10.0152 88.6964 10.6129 88.6964 11.53H102.696ZM90.7164 -3.12C88.5768 -3.12 86.3856 -2.79426 84.2953 -1.94265L89.5775 11.0226C89.6472 10.9943 89.976 10.88 90.7164 10.88V-3.12ZM80.6237 1.51516C79.1722 4.54434 78.5564 7.84281 78.5564 11.23H92.5564C92.5564 9.53719 92.8606 8.37565 93.2491 7.56484L80.6237 1.51516ZM78.5564 11.23C78.5564 14.3043 78.995 17.5954 80.5444 20.4496L92.8484 13.7704C92.8832 13.8345 92.8002 13.7053 92.7134 13.2577C92.6273 12.8132 92.5564 12.1532 92.5564 11.23H78.5564ZM80.5648 20.4868C82.8447 24.6268 86.9064 26.18 90.7164 26.18V12.18C90.5741 12.18 90.9208 12.1532 91.476 12.4391C92.1008 12.7608 92.569 13.2628 92.828 13.7332L80.5648 20.4868ZM90.7164 7.64C91.8093 7.64 92.3513 7.78887 92.5291 7.85545C92.6047 7.88377 92.5814 7.8847 92.5023 7.8284C92.4186 7.76886 92.3182 7.67759 92.2274 7.56013L103.305 -1.00013C100.059 -5.20116 95.1035 -6.36 90.7164 -6.36V7.64ZM92.2512 7.59074C92.2057 7.53259 92.3548 7.69416 92.5129 8.31512C92.673 8.94375 92.8064 9.90553 92.8064 11.29H106.806C106.806 7.03656 106.044 2.50335 103.282 -1.03074L92.2512 7.59074ZM92.8064 11.29C92.8064 12.9874 92.5839 14.0641 92.3555 14.6944L105.517 19.4656C106.449 16.8959 106.806 14.1126 106.806 11.29H92.8064ZM92.3555 14.6944C92.262 14.9521 92.1755 15.0509 91.999 15.1737L99.9939 26.6663C102.577 24.8691 104.451 22.4079 105.517 19.4656L92.3555 14.6944ZM91.999 15.1737C92.0763 15.1199 91.8175 15.36 90.7164 15.36V29.36C93.8953 29.36 97.1565 28.6401 99.9939 26.6663L91.999 15.1737ZM90.7164 15.36C89.7118 15.36 89.1957 15.2166 89.0031 15.1427C88.8635 15.0891 88.9424 15.0968 89.0374 15.2136L78.1754 24.0464C81.448 28.0708 86.214 29.36 90.7164 29.36V15.36ZM89.0666 15.2498C88.9893 15.1535 88.4164 14.3191 88.4164 11.68H74.4164C74.4164 16.0009 75.3035 20.4665 78.1462 24.0102L89.0666 15.2498ZM88.4164 11.68C88.4164 8.81402 89.0451 7.96908 89.095 7.90985C89.1031 7.90028 89.1072 7.8965 89.1076 7.89618C89.1079 7.8959 89.1082 7.89551 89.1102 7.8941C89.111 7.89358 89.1411 7.87146 89.2232 7.83895C89.3952 7.77092 89.8439 7.64 90.7164 7.64V-6.36C86.1925 -6.36 81.6316 -4.96057 78.3878 -1.10985C75.3377 2.51092 74.4164 7.18598 74.4164 11.68H88.4164Z" fill="#1DA1F2"/>
</g>
<defs>
<filter id="filter0_d_251_1522" x="0.899902" y="0.640015" width="102.907" height="29.75" filterUnits="userSpaceOnUse" color-interpolation-filters="sRGB">
<feFlood flood-opacity="0" result="BackgroundImageFix"/>
<feColorMatrix in="SourceAlpha" type="matrix" values="0 0 0 0 0 0 0 0 0 0 0 0 0 0 0 0 0 0 127 0" result="hardAlpha"/>
<feOffset dy="4"/>
<feGaussianBlur stdDeviation="2"/>
<feComposite in2="hardAlpha" operator="out"/>
<feColorMatrix type="matrix" values="0 0 0 0 0 0 0 0 0 0 0 0 0 0 0 0 0 0 0.25 0"/>
<feBlend mode="normal" in2="BackgroundImageFix" result="effect1_dropShadow_251_1522"/>
<feBlend mode="normal" in="SourceGraphic" in2="effect1_dropShadow_251_1522" result="shape"/>
</filter>
</defs>
</svg>
